<svg xmlns="http://www.w3.org/2000/svg" width="16" height="16" fill="none" viewBox="0 0 16 16"><g fill="#ffca5f" clip-path="url(#a)"><path d="M12 14a1 1 0 0 1 1 1v1H3v-1a1 1 0 0 1 1-1z"/><path fill-rule="evenodd" d="M8 5a4 4 0 0 1 4 4v4H4V9a4 4 0 0 1 4-4m0 5L6 8v4zl2 2V8z" clip-rule="evenodd"/><path d="M.293 3.793a1 1 0 0 1 1.414 0l1 1a1 1 0 1 1-1.414 1.414l-1-1a1 1 0 0 1 0-1.414M14.293 3.793a1 1 0 1 1 1.414 1.414l-1 1a1 1 0 1 1-1.414-1.414zM8 0a1 1 0 0 1 1 1v1.5a1 1 0 1 1-2 0V1a1 1 0 0 1 1-1"/></g><defs><clipPath id="a"><path fill="#fff" d="M0 0h16v16H0z"/></clipPath></defs></svg>