<svg xmlns="http://www.w3.org/2000/svg" width="16" height="16" fill="none" viewBox="0 0 16 16"><path fill="#fc7f7f" d="M9.365 14.867a7 7 0 0 1-2.73 0l.388-1.962a5 5 0 0 0 1.954 0zM3.842 10.777a5 5 0 0 0 1.38 1.381L4.11 13.82a7 7 0 0 1-1.93-1.93zM13.82 11.89a7 7 0 0 1-1.93 1.93l-1.113-1.662a5 5 0 0 0 1.381-1.38zM3.095 7.023a5 5 0 0 0 0 1.954l-1.962.388a7 7 0 0 1 0-2.73zM14.867 6.635a7 7 0 0 1 0 2.73l-1.962-.388a5 5 0 0 0 0-1.954zM5.223 3.842a5 5 0 0 0-1.381 1.38L2.18 4.11a7 7 0 0 1 1.93-1.93zM11.89 2.18a7 7 0 0 1 1.93 1.93l-1.662 1.113a5 5 0 0 0-1.38-1.381zM8 1q.7 0 1.365.133l-.388 1.962a5 5 0 0 0-1.954 0l-.388-1.962A7 7 0 0 1 8 1"/></svg>