<svg xmlns="http://www.w3.org/2000/svg" width="16" height="16" fill="none" viewBox="0 0 16 16"><path fill="#8da5f3" d="M5 1a1 1 0 0 1 .103 1.995l-.206.01A1 1 0 0 0 4 4v2a1 1 0 0 1-.293.707L2.414 8l1.293 1.293A1 1 0 0 1 4 10v2a1 1 0 0 0 .897.995l.206.01A1 1 0 0 1 5 15a3 3 0 0 1-3-3v-1.586L.293 8.707a1 1 0 0 1 0-1.414L2 5.586V4a3 3 0 0 1 3-3M11 1a3 3 0 0 1 3 3v1.586l1.707 1.707a1 1 0 0 1 0 1.414L14 10.414V12a3 3 0 0 1-3 3 1 1 0 0 1-.103-1.995l.205-.01A1 1 0 0 0 12 12v-2a1 1 0 0 1 .293-.707L13.586 8l-1.293-1.293A1 1 0 0 1 12 6V4a1 1 0 0 0-.898-.995l-.205-.01A1 1 0 0 1 11 1"/></svg>