<svg xmlns="http://www.w3.org/2000/svg" width="16" height="16" fill="none" viewBox="0 0 16 16"><path fill="#8eef97" d="M9.96 1c.931 0 1.824.37 2.483 1.028l.264.265a1 1 0 0 1-1.414 1.414l-.265-.265a1.511 1.511 0 0 0-2.533.703L8.281 5h1.72a1 1 0 0 1 0 2H7.78l-1.494 5.975a2.674 2.674 0 0 1-4.484 1.242l-.51-.51a1 1 0 1 1 1.414-1.414l.51.51a.674.674 0 0 0 1.13-.314L5.72 7H5a1 1 0 1 1 0-2h1.22l.335-1.34A3.51 3.51 0 0 1 9.96 1M10.264 9c.672 0 1.255.27 1.677.69A3.43 3.43 0 0 1 14 9a1 1 0 0 1 0 2c-.541 0-1.035.306-1.277.79l-.33.657-.033.097a.382.382 0 0 0 .375.456H13a1 1 0 0 1 0 2h-.264c-.673 0-1.256-.27-1.677-.69A3.42 3.42 0 0 1 9 15a1 1 0 1 1 0-2c.54 0 1.035-.306 1.277-.79l.329-.657a.382.382 0 0 0-.342-.553H10a1 1 0 1 1 0-2z"/></svg>