<svg xmlns="http://www.w3.org/2000/svg" width="16" height="16" fill="none" viewBox="0 0 16 16"><path fill="#8eef97" d="M2 10a1 1 0 0 1 1 1v.586l1.321-1.322q.536.233 1.117.395.532.146 1.087.229L4.415 13H5a1 1 0 1 1 0 2H2a1 1 0 0 1-1-1v-3a1 1 0 0 1 1-1M14 10a1 1 0 0 1 1 1v3a1 1 0 0 1-1 1h-3a1 1 0 0 1 0-2h.586l-2.112-2.112q.556-.083 1.088-.229.581-.162 1.117-.394L13 11.585V11a1 1 0 0 1 1-1M14.25 4.5a.75.75 0 0 1 .75.75v3a.75.75 0 0 1-1.5 0v-.655c-.3.46-.726.878-1.258 1.233a6.8 6.8 0 0 1-1.946.867A8.7 8.7 0 0 1 8 10a8.7 8.7 0 0 1-2.296-.305 6.8 6.8 0 0 1-1.946-.867c-.557-.371-1-.813-1.301-1.298A2.9 2.9 0 0 1 2 6a.75.75 0 1 1 1.5 0c0 .221.063.47.23.74.171.274.45.567.86.84.408.272.92.506 1.514.67.592.164 1.237.25 1.896.25s1.304-.086 1.896-.25a5.3 5.3 0 0 0 1.514-.67c.41-.273.689-.566.86-.84A1.4 1.4 0 0 0 12.5 6h-1.25a.75.75 0 0 1 0-1.5z"/><path fill="#8eef97" d="M7.37.225a1 1 0 0 1 1.337.068l2 2a1 1 0 0 1-1.414 1.414L9 3.414v4.004A6.4 6.4 0 0 1 8 7.5q-.515-.002-1-.082V3.414l-.293.293a1 1 0 0 1-1.414-1.414l2-2z"/></svg>