<svg xmlns="http://www.w3.org/2000/svg" width="16" height="16" fill="none" viewBox="0 0 16 16"><g clip-path="url(#a)"><path fill="#c38ef1" d="M5.369.224a1 1 0 0 1 1.337.068l2 2a1 1 0 1 1-1.414 1.414L7 3.413v4.172L11.584 3H11a1 1 0 1 1 0-2h3a1 1 0 0 1 1 1v3a1 1 0 0 1-2 0v-.588L8.414 9h4.171l-.293-.293a1 1 0 0 1 1.415-1.414l2 2 .068.076a1 1 0 0 1-.069 1.338l-2 2a1 1 0 1 1-1.414-1.414l.293-.293H6.414l-2 2h.585a1 1 0 0 1 0 2H2a1 1 0 0 1-1-1v-3a1 1 0 0 1 2 0v.586l2-2V3.413l-.293.293a1 1 0 0 1-1.414-1.414l2-2z"/></g><defs><clipPath id="a"><path fill="#fff" d="M0 0h16v16H0z"/></clipPath></defs></svg>