<svg xmlns="http://www.w3.org/2000/svg" width="16" height="16" fill="none" viewBox="0 0 16 16"><path fill="#c38ef1" fill-rule="evenodd" d="M8 1c1.852 0 3.568.561 4.843 1.518C14.118 3.474 15 4.872 15 6.5s-.882 3.026-2.157 3.982S9.853 12 8 12a9 9 0 0 1-1.64-.151q-.132.166-.283.312c.067.098.19.232.415.382C6.9 12.814 7.458 13 8 13a1 1 0 1 1 0 2 4.8 4.8 0 0 1-2.617-.793c-.43-.286-.871-.7-1.137-1.219a3 3 0 0 1-2.804-4.552A4.5 4.5 0 0 1 1 6.5c0-1.628.882-3.026 2.157-3.982S6.147 1 8 1M4 9a1 1 0 0 0-.977 1.213l.011.043q.026.096.069.184c.156.32.478.542.855.557L4 11a1 1 0 1 0 0-2m4-6c-1.461 0-2.746.446-3.643 1.118S3 5.643 3 6.5q0 .323.086.642a3 3 0 0 1 3.912 2.785Q7.482 9.999 8 10c1.461 0 2.746-.446 3.643-1.118S13 7.357 13 6.5s-.461-1.71-1.357-2.382C10.746 3.446 9.46 3 8 3" clip-rule="evenodd"/></svg>