<svg xmlns="http://www.w3.org/2000/svg" width="16" height="16" fill="none" viewBox="0 0 16 16"><path fill="#c38ef1" d="M8 12q.093 0 .185.009.016 0 .034.004a2 2 0 0 1 .538.136l.08.037.061.029.055.026.04.024.041.025q.072.043.139.093l.048.035a2 2 0 1 1-2.71.25l.018-.021q.114-.125.246-.227l.051-.037a2 2 0 0 1 .182-.118l.039-.024.046-.022q.039-.02.079-.038l.07-.032a2 2 0 0 1 .538-.136l.034-.004Q7.906 12 8 12M7.523 11.037A3 3 0 0 0 5.77 12L2.477 5.962A3 3 0 0 0 4.23 5zM11.77 5c.448.5 1.06.851 1.753.962l-3.293 6.036a3 3 0 0 0-1.754-.96zM2 1c.78 0 1.453.447 1.783 1.099l.024.048a1.98 1.98 0 0 1 .088 1.488l-.028.074a2 2 0 0 1-.06.143l-.024.048q-.12.238-.296.433l-.016.018a2 2 0 0 1-.644.467l-.064.03a2 2 0 0 1-.544.138l-.034.004A2 2 0 1 1 2 1M14 1a2 2 0 1 1-.185 3.99q-.018 0-.035-.004a2 2 0 0 1-.34-.068l-.068-.02a2 2 0 0 1-.14-.052l-.043-.02a2 2 0 0 1-.29-.158l-.074-.052-.046-.035a2 2 0 0 1-.478-.53l-.008-.012a2 2 0 0 1-.077-.139l-.024-.048a2 2 0 0 1-.06-.143q-.016-.038-.027-.074l-.028-.088a2 2 0 0 1 .027-1.183l.03-.079q.027-.07.058-.138l.024-.048A2 2 0 0 1 14 1M11.175 2A3 3 0 0 0 11 3c0 .351.064.687.175 1H4.826A3 3 0 0 0 5 3a3 3 0 0 0-.174-1z"/></svg>