<svg xmlns="http://www.w3.org/2000/svg" width="16" height="16" fill="none" viewBox="0 0 16 16"><g fill="#c38ef1" clip-path="url(#a)"><path d="M2 12a2 2 0 0 1 .635.104l.074.028q.072.027.143.06l.048.024c.381.192.69.502.883.883l.024.049q.033.07.06.142.016.038.028.074a2 2 0 0 1 .09.863 2 2 0 0 1-.09.408l-.026.072a2 2 0 0 1-.05.122l-.036.071A1.997 1.997 0 0 1 0 14c0-.78.447-1.454 1.099-1.784l.048-.024A2 2 0 0 1 2 12M14 12a2 2 0 0 1 .635.104l.074.028q.073.027.143.06l.048.024a1.998 1.998 0 1 1-2.823 2.33A2 2 0 0 1 12 14a2 2 0 0 1 2-2M11.174 13c-.11.313-.174.649-.174 1s.063.687.174 1H4.826c.11-.313.174-.649.174-1s-.063-.687-.174-1zM12.709 11.295a3 3 0 0 0-1.414 1.414L3.29 4.704A3 3 0 0 0 4.704 3.29zM3 11.174A3 3 0 0 0 2 11c-.351 0-.687.063-1 .174V4.825c.313.111.649.175 1 .175a3 3 0 0 0 1-.175zM15 11.174A3 3 0 0 0 14 11c-.351 0-.687.063-1 .174V4.825c.313.111.649.175 1 .175a3 3 0 0 0 1-.175zM2 0c.78 0 1.453.447 1.783 1.099l.012.022q.04.082.072.169.016.038.028.074l.024.076A2 2 0 0 1 4 2a2 2 0 1 1-2-2M14 0a2 2 0 1 1-1.784 2.9l-.024-.048a2 2 0 0 1-.06-.143q-.016-.038-.027-.074l-.028-.088a1.98 1.98 0 0 1 .055-1.257 2 2 0 0 1 .073-.169l.01-.022A2 2 0 0 1 14 0M11.174 1c-.11.313-.174.649-.174 1s.063.687.174 1H4.826c.11-.313.174-.649.174-1s-.063-.687-.174-1z"/></g><defs><clipPath id="a"><path fill="#fff" d="M0 0h16v16H0z"/></clipPath></defs></svg>