<svg xmlns="http://www.w3.org/2000/svg" width="16" height="16" fill="none" viewBox="0 0 16 16"><path fill="#c38ef1" fill-rule="evenodd" d="M12 8.23c.252.226.538.411.852.541l.277.1Q13.554 9 14 9v6H7v-3a2 2 0 1 0-4 0v3H2V9c.394 0 .785-.078 1.148-.229l.267-.125q.317-.173.585-.416c.252.226.538.411.852.541l.277.1a3 3 0 0 0 2.02-.1l.266-.125q.317-.173.585-.416c.252.226.538.411.852.541l.277.1a3 3 0 0 0 2.02-.1l.266-.125q.317-.173.585-.416M9 14h4v-3H9z" clip-rule="evenodd"/><path fill="#c38ef1" d="M13.382 1a1 1 0 0 1 .894.553l1.513 3.025c.139.278.21.583.211.894V6a2.002 2.002 0 0 1-2.766 1.848 2 2 0 0 1-1.224-1.652L12 6a2.002 2.002 0 0 1-2.766 1.848A2 2 0 0 1 8.01 6.196L8 6a2.001 2.001 0 0 1-3.414 1.414 2 2 0 0 1-.576-1.218L4 6A2.001 2.001 0 0 1 .586 7.414 2 2 0 0 1 .01 6.196L0 6v-.528a2 2 0 0 1 .21-.894l1.514-3.025A1 1 0 0 1 2.618 1z"/></svg>