<svg xmlns="http://www.w3.org/2000/svg" width="16" height="16" fill="none" viewBox="0 0 16 16"><g fill="#e0e0e0" clip-path="url(#a)"><path d="m2 15.414-.293.293a1 1 0 1 1-1.414-1.414L.586 14zM1.586 8a1 1 0 0 1 .707.293l5.414 5.414a1 1 0 0 1 .293.707v.172a1 1 0 0 1-.293.707l-.414.414a1 1 0 0 1-.707.293h-.172a1 1 0 0 1-.707-.293l-.914-.914a.707.707 0 0 1-1 1L.207 12.207a.707.707 0 0 1 1-1l-.914-.914A1 1 0 0 1 0 9.586v-.172a1 1 0 0 1 .293-.707l.414-.414A1 1 0 0 1 1.414 8zM11 6.414 6.414 11 5 9.586 9.586 5zM9.586 0a1 1 0 0 1 .707.293l.914.914a.708.708 0 0 1 1-1l3.586 3.586a.708.708 0 0 1-1 1l.914.914a1 1 0 0 1 .293.707v.172a1 1 0 0 1-.293.707l-.414.414a1 1 0 0 1-.707.293h-.172a1 1 0 0 1-.707-.293L8.293 2.293A1 1 0 0 1 8 1.586v-.172a1 1 0 0 1 .293-.707l.414-.414A1 1 0 0 1 9.414 0zM14.293.293a1 1 0 1 1 1.414 1.414L15.414 2 14 .586z"/></g><defs><clipPath id="a"><path fill="#fff" d="M0 0h16v16H0z"/></clipPath></defs></svg>