<svg xmlns="http://www.w3.org/2000/svg" width="16" height="16" fill="none" viewBox="0 0 16 16"><g fill="#e0e0e0" clip-path="url(#a)"><path d="M8 12a1 1 0 0 1 1 1v2a1 1 0 1 1-2 0v-2a1 1 0 0 1 1-1M1.293 11.793a1 1 0 1 1 1.414 1.414l-1 1a1 1 0 1 1-1.414-1.414zM13.293 11.793a1 1 0 0 1 1.414 0l1 1a1 1 0 1 1-1.414 1.414l-1-1a1 1 0 0 1 0-1.414M3 10H2a1 1 0 0 1-1-1V7a1 1 0 0 1 1-1h1zM12 10H4V6h8zM14 6a1 1 0 0 1 1 1v2a1 1 0 0 1-1 1h-1V6zM.293 1.793a1 1 0 0 1 1.414 0l1 1a1 1 0 1 1-1.414 1.414l-1-1a1 1 0 0 1 0-1.414M14.293 1.793a1 1 0 1 1 1.414 1.414l-1 1a1 1 0 1 1-1.414-1.414zM8 0a1 1 0 0 1 1 1v2a1 1 0 1 1-2 0V1a1 1 0 0 1 1-1"/></g><defs><clipPath id="a"><path fill="#fff" d="M0 0h16v16H0z"/></clipPath></defs></svg>