<svg xmlns="http://www.w3.org/2000/svg" width="16" height="16" fill="none" viewBox="0 0 16 16"><path fill="#e0e0e0" d="M1 13a1 1 0 1 1 0 2 1 1 0 0 1 0-2"/><path fill="#e0e0e0" fill-rule="evenodd" d="M12.035 2.737a1 1 0 0 1 1.93.526L13.49 5H15a1 1 0 0 1 0 2h-2.055l-.818 3H14a1 1 0 0 1 0 2h-2.418l-.617 2.263a1 1 0 0 1-1.93-.526L9.51 12H6.582l-.617 2.263a1 1 0 0 1-1.93-.526L4.51 12H3a1 1 0 1 1 0-2h2.055l.818-3H4a1 1 0 0 1 0-2h2.418l.617-2.263a1 1 0 0 1 1.93.526L8.49 5h2.927zM7.127 10h2.928l.818-3H7.945z" clip-rule="evenodd"/></svg>