<svg xmlns="http://www.w3.org/2000/svg" width="16" height="16" fill="none" viewBox="0 0 16 16"><path fill="#e0e0e0" d="M2.21 1.386a1 1 0 0 1 1.58 1.229A8.5 8.5 0 0 0 2 7.829v.342c0 1.889.63 3.724 1.79 5.215a1 1 0 0 1-1.58 1.229A10.5 10.5 0 0 1 0 8.17V7.83c0-2.333.778-4.6 2.21-6.443M12.386 1.211a1 1 0 0 1 1.403.175A10.5 10.5 0 0 1 16 7.83v.342c0 2.334-.778 4.602-2.21 6.444a1.001 1.001 0 0 1-1.58-1.229A8.5 8.5 0 0 0 14 8.171V7.83c0-1.888-.63-3.723-1.79-5.214a1 1 0 0 1 .176-1.404"/><path fill="#e0e0e0" d="M5.014 4.836a1 1 0 0 1 1.15-.822l.345.058c.836.14 1.528.588 1.995 1.2a5.03 5.03 0 0 1 2.254-1.241 1 1 0 1 1 .484 1.94 3.03 3.03 0 0 0-2.079 1.814l-.234.586-.044.13c-.178.656.246 1.34.935 1.455l.344.058a1 1 0 0 1-.328 1.973l-.345-.058a3.15 3.15 0 0 1-1.996-1.203 5.03 5.03 0 0 1-2.253 1.244 1 1 0 0 1-.484-1.94 3.03 3.03 0 0 0 2.079-1.815l.238-.596a1.167 1.167 0 0 0-.895-1.575l-.344-.057a1 1 0 0 1-.822-1.15"/></svg>