<svg width="896" height="384" viewBox="0 0 896 384" fill="none" xmlns="http://www.w3.org/2000/svg">
<path d="M322.4 142.936C329.264 142.936 335.296 144.045 340.496 146.264C345.765 148.413 349.891 151.395 352.872 155.208C355.923 158.952 358.211 163.112 359.736 167.688C361.261 172.264 362.024 177.152 362.024 182.352C362.024 194.139 359.667 202.909 354.952 208.664C350.237 214.349 344.344 217.192 337.272 217.192C330.131 217.192 326.04 214.349 325 208.664H324.688C320.528 213.933 315.155 216.568 308.568 216.568C303.16 216.568 298.896 214.696 295.776 210.952C292.725 207.139 291.2 202.181 291.2 196.08C291.2 188.8 293.315 182.733 297.544 177.88C301.843 172.957 307.181 170.496 313.56 170.496C320.909 170.496 325.693 173.373 327.912 179.128H328.12L328.328 176.84C328.744 172.888 330.373 170.912 333.216 170.912C334.672 170.912 335.712 171.397 336.336 172.368C337.029 173.269 337.307 174.379 337.168 175.696L334.776 199.408C334.499 202.251 334.707 204.261 335.4 205.44C336.093 206.619 337.411 207.208 339.352 207.208C342.749 207.208 345.731 204.989 348.296 200.552C350.861 196.045 352.144 190.187 352.144 182.976C352.144 173.755 349.579 166.336 344.448 160.72C339.317 155.035 331.621 152.192 321.36 152.192C308.187 152.192 297.475 156.421 289.224 164.88C281.043 173.339 276.952 184.605 276.952 198.68C276.952 209.843 280.003 218.509 286.104 224.68C292.275 230.851 300.803 233.936 311.688 233.936C314.808 233.936 318.101 233.451 321.568 232.48C325.035 231.509 327.011 231.024 327.496 231.024C328.744 231.024 329.715 231.405 330.408 232.168C331.101 233 331.448 234.005 331.448 235.184C331.448 237.403 330.235 239.101 327.808 240.28C324.133 242.221 318.587 243.192 311.168 243.192C297.163 243.192 286.312 239.101 278.616 230.92C270.92 222.808 267.072 212.096 267.072 198.784C267.072 182.075 272.099 168.589 282.152 158.328C292.275 148.067 305.691 142.936 322.4 142.936ZM325.312 191.088C325.312 187.136 324.376 184.155 322.504 182.144C320.701 180.064 318.136 179.024 314.808 179.024C311.133 179.024 308.013 180.619 305.448 183.808C302.952 186.928 301.704 190.845 301.704 195.56C301.704 199.304 302.605 202.355 304.408 204.712C306.211 207 308.707 208.144 311.896 208.144C315.709 208.144 318.899 206.584 321.464 203.464C324.029 200.275 325.312 196.149 325.312 191.088ZM392.927 155.104C390.431 157.461 387.033 158.64 382.735 158.64C378.436 158.64 375.004 157.461 372.439 155.104C369.873 152.747 368.591 149.488 368.591 145.328C368.591 141.168 369.873 137.909 372.439 135.552C375.004 133.195 378.436 132.016 382.735 132.016C387.033 132.016 390.431 133.195 392.927 135.552C395.492 137.909 396.775 141.168 396.775 145.328C396.775 149.488 395.492 152.747 392.927 155.104ZM382.735 220.728C378.505 220.728 375.212 219.584 372.855 217.296C370.497 214.939 369.319 211.68 369.319 207.52V178.92C369.319 174.76 370.497 171.536 372.855 169.248C375.212 166.891 378.505 165.712 382.735 165.712C386.895 165.712 390.119 166.891 392.407 169.248C394.764 171.536 395.943 174.76 395.943 178.92V207.52C395.943 211.68 394.764 214.939 392.407 217.296C390.119 219.584 386.895 220.728 382.735 220.728ZM430.375 221.664C420.391 221.664 412.833 219.064 407.703 213.864C402.641 208.664 400.111 201.835 400.111 193.376C400.111 184.293 402.953 177.291 408.639 172.368C414.393 167.376 421.673 164.88 430.479 164.88C436.303 164.88 440.913 165.92 444.311 168C447.777 170.219 449.511 173.269 449.511 177.152C449.511 179.717 448.713 181.901 447.119 183.704C445.593 185.437 443.617 186.304 441.191 186.304C439.873 186.304 438.452 186.061 436.927 185.576C435.401 185.021 433.945 184.744 432.559 184.744C430.34 184.744 428.537 185.541 427.151 187.136C425.833 188.661 425.175 190.707 425.175 193.272C425.175 195.837 425.833 197.917 427.151 199.512C428.537 201.037 430.34 201.8 432.559 201.8C433.945 201.8 435.401 201.557 436.927 201.072C438.452 200.517 439.873 200.24 441.191 200.24C443.617 200.24 445.593 201.141 447.119 202.944C448.713 204.677 449.511 206.827 449.511 209.392C449.511 213.413 447.708 216.499 444.103 218.648C440.844 220.659 436.268 221.664 430.375 221.664ZM481.721 221.664C472.292 221.664 464.839 219.099 459.361 213.968C453.953 208.837 451.249 201.973 451.249 193.376C451.249 184.64 453.988 177.707 459.465 172.576C464.943 167.445 472.327 164.88 481.618 164.88C490.908 164.88 498.292 167.445 503.769 172.576C509.316 177.707 512.09 184.64 512.09 193.376C512.09 201.973 509.351 208.837 503.874 213.968C498.466 219.099 491.082 221.664 481.721 221.664ZM481.618 200.032C484.599 200.032 486.089 197.779 486.089 193.272C486.089 188.765 484.599 186.512 481.618 186.512C478.636 186.512 477.18 188.8 477.249 193.376C477.249 197.813 478.705 200.032 481.618 200.032ZM529.755 220.728C525.526 220.728 522.232 219.584 519.875 217.296C517.518 214.939 516.339 211.68 516.339 207.52V176.216C516.339 172.888 517.275 170.323 519.147 168.52C521.019 166.648 523.654 165.712 527.051 165.712C530.24 165.712 532.806 166.509 534.747 168.104C536.758 169.699 537.832 172.021 537.971 175.072V175.28H538.179C539.358 171.744 541.576 169.144 544.835 167.48C548.163 165.747 551.664 164.88 555.339 164.88C562.342 164.88 567.507 167.133 570.835 171.64C574.163 176.077 575.827 183.392 575.827 193.584V207.52C575.827 211.68 574.648 214.939 572.291 217.296C570.003 219.584 566.779 220.728 562.619 220.728C558.39 220.728 555.096 219.584 552.739 217.296C550.382 214.939 549.203 211.68 549.203 207.52V193.272C549.203 189.875 548.232 188.176 546.291 188.176C544.003 188.176 542.928 189.84 543.067 193.168L542.963 207.52C542.963 211.68 541.784 214.939 539.427 217.296C537.139 219.584 533.915 220.728 529.755 220.728ZM606.255 221.664C597.034 221.664 589.823 220.069 584.623 216.88C581.295 214.8 579.631 212.027 579.631 208.56C579.631 206.064 580.359 204.053 581.815 202.528C583.34 201.003 585.316 200.24 587.743 200.24C589.684 200.24 592.146 201.003 595.127 202.528C598.108 203.984 600.362 204.712 601.887 204.712C603.759 204.712 604.695 204.192 604.695 203.152C604.695 202.875 604.626 202.632 604.487 202.424C604.418 202.216 604.244 202.043 603.967 201.904C603.759 201.696 603.516 201.523 603.239 201.384C603.031 201.245 602.719 201.141 602.303 201.072C601.887 200.933 601.506 200.829 601.159 200.76C600.812 200.621 600.327 200.483 599.703 200.344C599.079 200.205 598.559 200.067 598.143 199.928C592.25 198.264 587.847 196.011 584.935 193.168C582.023 190.325 580.567 186.651 580.567 182.144C580.567 176.944 582.855 172.784 587.431 169.664C592.007 166.475 598.282 164.88 606.255 164.88C615.13 164.88 622.028 166.509 626.951 169.768C630.14 171.848 631.735 174.448 631.735 177.568C631.735 179.787 631.007 181.728 629.551 183.392C628.095 184.987 626.119 185.784 623.623 185.784C622.236 185.784 620.052 185.229 617.071 184.12C614.09 182.941 611.767 182.352 610.103 182.352C608.3 182.352 607.399 182.837 607.399 183.808C607.399 184.501 607.676 184.987 608.231 185.264C608.855 185.541 610.138 185.923 612.079 186.408C613.812 186.824 615.026 187.136 615.719 187.344C616.412 187.483 617.66 187.829 619.463 188.384C621.266 188.939 622.583 189.459 623.415 189.944C624.316 190.429 625.46 191.157 626.847 192.128C628.234 193.029 629.239 194.035 629.863 195.144C630.556 196.184 631.18 197.501 631.735 199.096C632.29 200.621 632.567 202.32 632.567 204.192C632.567 209.6 630.244 213.864 625.599 216.984C621.023 220.104 614.575 221.664 606.255 221.664Z" fill="#E0E0E0"/>
<g opacity="0.25">
<path d="M216 228C216 232.418 219.582 236 224 236C228.418 236 232 232.418 232 228V212H248V228C248 241.255 237.255 252 224 252C210.745 252 200 241.255 200 228V212H216V228Z" fill="#8DA5F3"/>
<path d="M212 196C214.209 196 216 197.791 216 200V208H200V200C200 197.791 201.791 196 204 196H212Z" fill="#8DA5F3"/>
<path d="M244 196C246.209 196 248 197.791 248 200V208H232V200C232 197.791 233.791 196 236 196H244Z" fill="#8DA5F3"/>
</g>
<g opacity="0.25">
<path d="M436 260C440.418 260 444 263.582 444 268V308C444 312.418 440.418 316 436 316H396C391.582 316 388 312.418 388 308V268C388 263.582 391.582 260 396 260H436ZM396 300V308H436V300L428 292L420 300L408 288L396 300ZM428 268C423.582 268 420 271.582 420 276C420 280.418 423.582 284 428 284C432.418 284 436 280.418 436 276C436 271.582 432.418 268 428 268Z" fill="#FC7F7F"/>
</g>
<g opacity="0.25">
<path d="M671.999 76C684.87 76 695.153 88.9414 698.683 94.0039C699.528 95.2157 699.528 96.7843 698.683 97.9961C695.153 103.059 684.87 116 671.999 116C659.128 115.999 648.845 103.058 645.316 97.9961C644.471 96.7844 644.471 95.2156 645.316 94.0039C648.845 88.942 659.128 76.0006 671.999 76ZM671.999 84C665.372 84.0005 659.999 89.3729 659.999 96C659.999 102.627 665.372 108 671.999 108C678.627 108 683.999 102.627 683.999 96C683.999 89.3726 678.627 84 671.999 84Z" fill="#E0E0E0"/>
</g>
<g opacity="0.5">
<path d="M676 56C676 58.2091 674.209 60 672 60C669.791 60 668 58.2091 668 56V51.5977C669.293 51.8601 670.63 52 672 52C673.37 52 674.707 51.8601 676 51.5977V56Z" fill="#FC7F7F"/>
<path d="M682 4C683.105 4 684 4.89543 684 6V16H688C690.209 16 692 17.7909 692 20V24C692 26.2091 690.209 28 688 28V32C688 40.8366 680.837 48 672 48C663.163 48 656 40.8366 656 32V28C653.791 28 652 26.2091 652 24V20C652 17.7909 653.791 16 656 16H660V6C660 4.89543 660.895 4 662 4C663.105 4 664 4.89543 664 6V16H680V6C680 4.89543 680.895 4 682 4Z" fill="#FC7F7F"/>
</g>
<g opacity="0.25">
<path d="M682 260C685.314 260 688 262.686 688 266V283.031C692.824 286.26 696 291.759 696 298C696 307.941 687.941 316 678 316H666C656.059 316 648 307.941 648 298C648 291.759 651.176 286.26 656 283.031V266C656 262.686 658.686 260 662 260C665.314 260 668 262.686 668 266V280H676V266C676 262.686 678.686 260 682 260ZM670 304C668.895 304 668 304.895 668 306C668 307.105 668.895 308 670 308H674C675.105 308 676 307.105 676 306C676 304.895 675.105 304 674 304H670ZM662 292C660.895 292 660 292.895 660 294V302C660 303.105 660.895 304 662 304C663.105 304 664 303.105 664 302V294C664 292.895 663.105 292 662 292ZM682 292C680.895 292 680 292.895 680 294V302C680 303.105 680.895 304 682 304C683.105 304 684 303.105 684 302V294C684 292.895 683.105 292 682 292Z" fill="#FC7F7F"/>
</g>
<path d="M840 348V332C840 329.791 841.791 328 844 328H860C862.209 328 864 329.791 864 332C864 334.209 862.209 336 860 336H853.496L880 363.145V356C880 353.791 881.791 352 884 352C886.209 352 888 353.791 888 356V372.969C888 374.03 887.578 375.051 886.828 375.801C886.078 376.55 885.06 376.969 884 376.969H868C865.791 376.969 864 375.178 864 372.969C864.001 370.76 865.791 368.969 868 368.969H874.5L848 341.82V348C848 350.209 846.209 352 844 352C841.791 352 840 350.209 840 348Z" fill="#8EEF97"/>
<g opacity="0.75">
<path d="M800 340C802.209 340 804 341.791 804 344V366.344L813.172 357.172C814.734 355.61 817.266 355.61 818.828 357.172C820.39 358.734 820.39 361.266 818.828 362.828L802.828 378.828L802.523 379.102C800.952 380.383 798.636 380.293 797.172 378.828L781.172 362.828C779.61 361.266 779.61 358.734 781.172 357.172C782.734 355.61 785.266 355.61 786.828 357.172L796 366.344V344C796 341.791 797.791 340 800 340Z" fill="#FC7F7F"/>
<path d="M824 324C826.209 324 828 325.791 828 328C828 330.209 826.209 332 824 332H776C773.791 332 772 330.209 772 328C772 325.791 773.791 324 776 324H824Z" fill="#FC7F7F"/>
</g>
<g opacity="0.25">
<path d="M274 72C281.732 72 288 78.268 288 86V120H280V104H268V120H260V86C260 78.268 266.268 72 274 72ZM274 80C270.686 80 268 82.6863 268 86V96H280V86C280 82.6863 277.314 80 274 80Z" fill="#FC7F7F"/>
<path d="M304 88C310.627 88 316 93.3726 316 100V120H302C296.477 120 292 115.523 292 110C292 104.477 296.477 100 302 100H308C308 97.7909 306.209 96 304 96H296V88H304ZM302 108C300.895 108 300 108.895 300 110C300 111.105 300.895 112 302 112H308V108H302Z" fill="#FC7F7F"/>
</g>
<g opacity="0.5">
<path d="M628 324C632.418 324 636 327.582 636 332V372C636 376.418 632.418 380 628 380H588C583.582 380 580 376.418 580 372V332C580 327.582 583.582 324 588 324H628ZM594 356C588.477 356 584 360.477 584 366C584 371.523 588.477 376 594 376H606C609.314 376 612 373.314 612 370C612 366.686 609.314 364 606 364H603.801C602.874 359.435 598.838 356 594 356ZM618 328C613.162 328 609.126 331.435 608.199 336H602C598.686 336 596 338.686 596 342C596 345.314 598.686 348 602 348H626C629.314 348 632 345.314 632 342C632 339.33 630.255 337.067 627.844 336.289C627.031 331.582 622.939 328 618 328Z" fill="#8EEF97"/>
</g>
<g opacity="0.5">
<path d="M664 324C668.418 324 672 327.582 672 332V336C672 339.314 669.314 342 666 342C664.895 342 664 342.895 664 344C664 345.105 664.895 346 666 346C668.255 346 670.327 345.243 672 343.984V352C672 357.523 667.523 362 662 362C660.895 362 660 362.895 660 364C660 365.105 660.895 366 662 366C665.92 366 669.459 364.385 672 361.789V372C672 376.418 668.418 380 664 380C659.857 380 656.452 376.851 656.043 372.816L656 372L655.383 371.984C649.042 371.663 644 366.42 644 360C644 355.169 646.858 351.012 650.973 349.109C649.139 347.297 648 344.782 648 342C648 337.162 651.435 333.126 656 332.199V332C656 327.582 659.582 324 664 324Z" fill="#E0E0E0"/>
<path d="M684 324C688.418 324 692 327.582 692 332V332.199C696.565 333.126 700 337.162 700 342C700 344.783 698.858 347.296 697.023 349.109C701.14 351.011 704 355.168 704 360C704 366.42 698.958 371.663 692.617 371.984L692 372C692 376.418 688.418 380 684 380C679.582 380 676 376.418 676 372V361.789C678.541 364.385 682.08 366 686 366C687.105 366 688 365.105 688 364C688 362.895 687.105 362 686 362C680.477 362 676 357.523 676 352V343.984C677.673 345.243 679.745 346 682 346C683.105 346 684 345.105 684 344C684 342.895 683.105 342 682 342C678.686 342 676 339.314 676 336V332C676 327.582 679.582 324 684 324Z" fill="#E0E0E0"/>
</g>
<g opacity="0.5">
<path d="M536 344.906C536.001 341.456 540.077 339.626 542.656 341.918L564.137 361.012C566.884 363.455 565.157 367.999 561.48 368H554.68L557.625 374.309C558.559 376.31 557.693 378.691 555.691 379.625C553.69 380.559 551.309 379.693 550.375 377.691L547.402 371.324L542.973 376.254C540.52 378.977 536 377.24 536 373.574V344.906Z" fill="#FC7F7F"/>
<path d="M528 344C530.209 344 532 345.791 532 348C532 350.209 530.209 352 528 352H524C521.791 352 520 350.209 520 348C520 345.791 521.791 344 524 344H528Z" fill="#FC7F7F"/>
<path d="M525.172 329.172C526.734 327.61 529.266 327.61 530.828 329.172L534.828 333.172C536.39 334.734 536.39 337.266 534.828 338.828C533.266 340.39 530.734 340.39 529.172 338.828L525.172 334.828C523.61 333.266 523.61 330.734 525.172 329.172Z" fill="#FC7F7F"/>
<path d="M544 324C546.209 324 548 325.791 548 328V332C548 334.209 546.209 336 544 336C541.791 336 540 334.209 540 332V328C540 325.791 541.791 324 544 324Z" fill="#FC7F7F"/>
</g>
<g opacity="0.5">
<path d="M480 324C495.464 324 508 336.536 508 352V352.891C507.999 359.026 503.026 363.999 496.891 364H492C489.956 364 488.098 363.226 486.684 361.965C484.773 363.249 482.475 364 480 364C473.373 364 468 358.627 468 352C468 345.373 473.373 340 480 340C486.627 340 492 345.373 492 352V356H496.891C498.607 355.999 499.999 354.607 500 352.891V352C500 340.954 491.046 332 480 332C468.954 332 460 340.954 460 352C460 363.046 468.954 372 480 372H484C486.209 372 488 373.791 488 376C488 378.209 486.209 380 484 380H480C464.536 380 452 367.464 452 352C452 336.536 464.536 324 480 324ZM480 348C477.791 348 476 349.791 476 352C476 354.209 477.791 356 480 356C482.209 356 484 354.209 484 352C484 349.791 482.209 348 480 348Z" fill="#8DA5F3"/>
</g>
<g opacity="0.5">
<path d="M440 372C442.209 372 444 373.791 444 376C444 378.209 442.209 380 440 380H392C389.791 380 388 378.209 388 376C388 373.791 389.791 372 392 372H440Z" fill="#E0E0E0"/>
<path d="M416 324C418.209 324 420 325.791 420 328V350.344L429.172 341.172C430.734 339.61 433.266 339.61 434.828 341.172C436.39 342.734 436.39 345.266 434.828 346.828L418.828 362.828C418.078 363.578 417.061 364 416 364C414.939 364 413.922 363.578 413.172 362.828L397.172 346.828C395.61 345.266 395.61 342.734 397.172 341.172C398.734 339.61 401.266 339.61 402.828 341.172L412 350.344V328C412 325.791 413.791 324 416 324Z" fill="#E0E0E0"/>
</g>
<g opacity="0.5">
<path d="M368 324C372.418 324 376 327.582 376 332V372C376 376.418 372.418 380 368 380H336C331.582 380 328 376.418 328 372V332C328 327.582 331.582 324 336 324H368ZM340 368C337.791 368 336 369.791 336 372C336 374.209 337.791 376 340 376C342.209 376 344 374.209 344 372C344 369.791 342.209 368 340 368ZM352 368C349.791 368 348 369.791 348 372C348 374.209 349.791 376 352 376H364C366.209 376 368 374.209 368 372C368 369.791 366.209 368 364 368H352ZM340 356C337.791 356 336 357.791 336 360C336 362.209 337.791 364 340 364C342.209 364 344 362.209 344 360C344 357.791 342.209 356 340 356ZM352 356C349.791 356 348 357.791 348 360C348 362.209 349.791 364 352 364C354.209 364 356 362.209 356 360C356 357.791 354.209 356 352 356ZM364 356C361.791 356 360 357.791 360 360C360 362.209 361.791 364 364 364C366.209 364 368 362.209 368 360C368 357.791 366.209 356 364 356ZM340 344C337.791 344 336 345.791 336 348C336 350.209 337.791 352 340 352C342.209 352 344 350.209 344 348C344 345.791 342.209 344 340 344ZM352 344C349.791 344 348 345.791 348 348C348 350.209 349.791 352 352 352C354.209 352 356 350.209 356 348C356 345.791 354.209 344 352 344ZM364 344C361.791 344 360 345.791 360 348C360 350.209 361.791 352 364 352C366.209 352 368 350.209 368 348C368 345.791 366.209 344 364 344ZM336 328C333.791 328 332 329.791 332 332V336C332 338.209 333.791 340 336 340H368C370.209 340 372 338.209 372 336V332C372 329.791 370.209 328 368 328H336Z" fill="#8EEF97"/>
</g>
<g opacity="0.5">
<path d="M303.504 326.031C305.696 325.757 307.695 327.312 307.969 329.504C308.243 331.696 306.688 333.695 304.496 333.969L292 335.527V368C292 374.627 286.627 380 280 380C273.373 380 268 374.627 268 368C268 361.373 273.373 356 280 356C281.404 356 282.748 356.252 284 356.695V332C284 329.983 285.502 328.282 287.504 328.031L303.504 326.031Z" fill="#FC7F7F"/>
</g>
<g opacity="0.5">
<path d="M181.172 333.172C182.734 331.61 185.266 331.61 186.828 333.172C188.39 334.734 188.39 337.266 186.828 338.828L154.828 370.828C153.266 372.39 150.734 372.39 149.172 370.828L133.172 354.828C131.61 353.266 131.61 350.734 133.172 349.172C134.734 347.61 137.266 347.61 138.828 349.172L152 362.344L181.172 333.172Z" fill="#E0E0E0"/>
</g>
<g opacity="0.75">
<path d="M104 344C104 337.373 98.6271 332 91.9998 332C85.3724 332 79.9998 337.373 79.9998 344V364C79.9998 366.209 78.2089 368 75.9998 368C73.7906 368 71.9998 366.209 71.9998 364V344C71.9998 332.954 80.9541 324 91.9998 324C103.045 324 112 332.954 112 344V366.344L117.172 361.172C118.734 359.61 121.266 359.61 122.828 361.172C124.39 362.734 124.39 365.266 122.828 366.828L110.828 378.828C109.266 380.39 106.734 380.39 105.172 378.828L93.1716 366.828C91.6096 365.266 91.6096 362.734 93.1716 361.172C94.7337 359.61 97.2658 359.61 98.8279 361.172L104 366.344V344Z" fill="#8EEF97"/>
</g>
<path d="M26 324C38.1503 324 48 333.85 48 346C48 350.863 46.4177 355.354 43.7461 358.996L57.9727 370.379C59.2538 371.404 60 372.957 60 374.598C59.9996 377.581 57.5811 380 54.5977 380C52.9566 380 51.4043 379.254 50.3789 377.973L38.9961 363.746C35.3542 366.418 30.863 368 26 368C13.8497 368 4 358.15 4 346C4 333.85 13.8497 324 26 324ZM26 332C18.268 332 12 338.268 12 346C12 353.732 18.268 360 26 360C33.732 360 40 353.732 40 346C40 338.268 33.732 332 26 332Z" fill="#FC7F7F"/>
<path d="M860 316H840C837.791 316 836 314.209 836 312V292H860V316Z" fill="#8DA5F3"/>
<path d="M888 312C888 314.209 886.209 316 884 316H864V292H888V312Z" fill="#8DA5F3"/>
<path d="M860 288H836V268C836 265.791 837.791 264 840 264H860V288Z" fill="#8DA5F3"/>
<path d="M876 288H864V276H876V288Z" fill="#8DA5F3"/>
<path d="M892 288H880V276H892V288Z" fill="#8DA5F3"/>
<path d="M876 272H864V260H876V272Z" fill="#8DA5F3"/>
<path d="M888 260C890.209 260 892 261.791 892 264V272H880V260H888Z" fill="#8DA5F3"/>
<g opacity="0.75">
<path d="M772 260V280H776V276C776 271.582 779.582 268 784 268H796V304C796 308.418 792.418 312 788 312H784V316H816V312H812C807.582 312 804 308.418 804 304V268H816C820.418 268 824 271.582 824 276V280H828V260H772Z" fill="#E0E0E0"/>
</g>
<g opacity="0.5">
<path d="M742 260C745.314 260 748 262.686 748 266V269.664C755.064 272.75 760 279.799 760 288V308C760 312.143 756.851 315.548 752.816 315.957L752 316V302C752 296.477 747.523 292 742 292H730C724.477 292 720 296.477 720 302V316C715.582 316 712 312.418 712 308V288C712 279.799 716.936 272.75 724 269.664V266C724 262.686 726.686 260 730 260H742ZM726 280C724.895 280 724 280.895 724 282C724 283.105 724.895 284 726 284H746C747.105 284 748 283.105 748 282C748 280.895 747.105 280 746 280H726ZM730 264C728.895 264 728 264.895 728 266V268.398C729.292 268.136 730.63 268 732 268H740C741.37 268 742.708 268.136 744 268.398V266C744 264.895 743.105 264 742 264H730Z" fill="#8EEF97"/>
<path d="M742 296C745.314 296 748 298.686 748 302V316H724V302C724 298.686 726.686 296 730 296H742Z" fill="#8EEF97"/>
</g>
<g opacity="0.25">
<path d="M592 265.657C592 262.093 596.308 260.309 598.828 262.828L625.172 289.172C627.691 291.692 625.907 296 622.344 296H613.406L619.668 310.407C620.548 312.432 619.619 314.788 617.594 315.668C615.568 316.548 613.213 315.619 612.332 313.594L605.848 298.684L599.125 307.094C596.763 310.046 592.001 308.378 592 304.598V265.657Z" fill="#8DA5F3"/>
</g>
<g opacity="0.25">
<path d="M528 304H540V284H548V304H560V284H568V304C570.209 304 572 305.791 572 308V316H516V308C516 305.791 517.791 304 520 304V284H528V304Z" fill="#E0E0E0"/>
<path d="M542.016 257.133C543.245 256.431 544.755 256.431 545.984 257.133L569.984 270.848C571.231 271.56 572 272.885 572 274.321V280H516V274.321C516 272.885 516.769 271.56 518.016 270.848L542.016 257.133Z" fill="#E0E0E0"/>
</g>
<g opacity="0.25">
<path d="M492 264C495.614 264 498.664 266.452 499.656 269.742H499.672L506.789 292.188C507.59 294.714 508 297.349 508 300C508 306.627 502.627 312 496 312C489.373 312 484 306.627 484 300V296C484 293.791 482.209 292 480 292C477.791 292 476 293.791 476 296V300C476 306.627 470.627 312 464 312C457.373 312 452 306.627 452 300C452 297.349 452.407 294.715 453.207 292.188L460.312 269.742C461.27 266.396 464.346 264 468 264C472.418 264 476 267.582 476 272H484C484 267.582 487.582 264 492 264ZM464 292C459.582 292 456 295.582 456 300C456 304.418 459.582 308 464 308C468.418 308 472 304.418 472 300C472 295.582 468.418 292 464 292ZM496 292C491.582 292 488 295.582 488 300C488 304.418 491.582 308 496 308C500.418 308 504 304.418 504 300C504 295.582 500.418 292 496 292Z" fill="#8EEF97"/>
</g>
<g opacity="0.25">
<path d="M372 260C376.418 260 380 263.582 380 268V308C380 312.143 376.851 315.548 372.816 315.957L372 316H332L331.184 315.957C327.417 315.575 324.425 312.583 324.043 308.816L324 308V268C324 263.582 327.582 260 332 260H372ZM332 300V308H340V300H332ZM348 300V308H356V300H348ZM364 300V308H372V300H364ZM332 292H340V284H332V292ZM348 292H356V284H348V292ZM364 292H372V284H364V292ZM332 276H340V268H332V276ZM348 276H356V268H348V276ZM364 276H372V268H364V276Z" fill="#8DA5F3"/>
</g>
<g opacity="0.25">
<path d="M241.172 261.172C242.734 259.611 245.266 259.61 246.828 261.172L254.828 269.172C255.578 269.922 256 270.94 256 272.001C256 273.061 255.578 274.079 254.828 274.829L246.828 282.829C245.266 284.39 242.734 284.39 241.172 282.829C239.61 281.267 239.61 278.734 241.172 277.172L242.246 276.098C234.235 276.972 228 283.757 228 292.001V312.001C228 312.276 227.971 312.545 227.918 312.805C227.865 313.065 227.788 313.316 227.688 313.555C227.081 314.992 225.658 316.001 224 316.001C221.791 316.001 220 314.209 220 312.001V292.001C220 283.757 213.765 276.972 205.754 276.098L206.828 277.172C208.39 278.734 208.39 281.267 206.828 282.829C205.266 284.39 202.734 284.39 201.172 282.829L193.172 274.829C192.422 274.079 192 273.061 192 272.001C192 270.94 192.422 269.922 193.172 269.172L201.172 261.172C202.734 259.61 205.266 259.611 206.828 261.172C208.39 262.735 208.39 265.267 206.828 266.829L205.598 268.063C213.284 268.568 219.977 272.691 224 278.743C228.023 272.691 234.716 268.568 242.402 268.063L241.172 266.829C239.61 265.267 239.61 262.735 241.172 261.172Z" fill="#8EEF97"/>
</g>
<g opacity="0.5">
<path d="M150.572 306.572L141.428 297.428C135.391 291.391 132 283.204 132 274.667C132 270.398 133.696 266.304 136.714 263.286L138.145 261.855C139.17 260.83 140.83 260.83 141.855 261.855L149.961 269.961C151.179 271.179 151.481 273.039 150.711 274.579L145.289 285.421C144.519 286.961 144.821 288.821 146.039 290.039L157.961 301.961C159.179 303.179 161.039 303.481 162.579 302.711L173.421 297.289C174.961 296.519 176.821 296.821 178.039 298.039L186.145 306.146C187.17 307.17 187.17 308.83 186.145 309.855L184.714 311.286C181.696 314.304 177.602 316 173.333 316C164.796 316 156.609 312.609 150.572 306.572Z" fill="#FC7F7F"/>
</g>
<g opacity="0.75">
<path d="M95.9999 260C97.0608 260 98.0779 260.422 98.8281 261.172L110.828 273.172C112.39 274.734 112.39 277.266 110.828 278.828C109.266 280.39 106.734 280.39 105.172 278.828L99.9999 273.656V302.344L105.172 297.172C106.734 295.61 109.266 295.61 110.828 297.172C112.39 298.734 112.39 301.266 110.828 302.828L98.8281 314.828C97.266 316.39 94.7339 316.39 93.1718 314.828L81.1718 302.828C79.6098 301.266 79.6098 298.734 81.1718 297.172C82.7339 295.61 85.266 295.61 86.8281 297.172L91.9999 302.344V273.656L86.8281 278.828C85.266 280.39 82.7339 280.39 81.1718 278.828C79.6097 277.266 79.6097 274.734 81.1718 273.172L93.1718 261.172L93.4648 260.906C94.1766 260.323 95.0716 260 95.9999 260Z" fill="#8DA5F3"/>
</g>
<path d="M32 260C44 260 52 268 52 280C52 292 40 304 32 316C24 304 12 292 12 280C12 268 20 260 32 260ZM32 270C29.3478 270 26.8051 271.054 24.9297 272.93C23.0543 274.805 22 277.348 22 280C22 282.652 23.0543 285.195 24.9297 287.07C26.8051 288.946 29.3478 290 32 290C34.6522 290 37.1949 288.946 39.0703 287.07C40.9457 285.195 42 282.652 42 280C42 277.348 40.9457 274.805 39.0703 272.93C37.1949 271.054 34.6522 270 32 270Z" fill="#E0E0E0"/>
<path d="M854 202L844 212L840 208L850 198C851.105 196.895 852.895 196.895 854 198C855.105 199.105 855.105 200.895 854 202Z" fill="#8EEF97"/>
<path d="M892 212H880V220C880 222.209 878.209 224 876 224H868V232C868 234.209 866.209 236 864 236H856V244C856 246.209 854.209 248 852 248H836V240H848V232C848 229.791 849.791 228 852 228H860V220C860 217.791 861.791 216 864 216H872V208C872 205.791 873.791 204 876 204H892V212Z" fill="#8EEF97"/>
<path d="M849.172 197.172C850.734 195.61 853.266 195.61 854.828 197.172C856.39 198.734 856.39 201.266 854.828 202.828L849.656 208H852C854.209 208 856 209.791 856 212C856 214.209 854.209 216 852 216H840C837.791 216 836 214.209 836 212V200C836 197.791 837.791 196 840 196C842.209 196 844 197.791 844 200V202.344L849.172 197.172Z" fill="#8EEF97"/>
<g opacity="0.75">
<path d="M796 200C796 197.791 797.791 196 800 196C802.209 196 804 197.791 804 200V238.344L821.172 221.172C822.734 219.61 825.266 219.61 826.828 221.172C828.39 222.734 828.39 225.266 826.828 226.828L802.828 250.828C801.266 252.39 798.734 252.39 797.172 250.828L773.172 226.828C771.61 225.266 771.61 222.734 773.172 221.172C774.734 219.61 777.266 219.61 778.828 221.172L796 238.344V200Z" fill="#FC7F7F"/>
</g>
<g opacity="0.5">
<path d="M722.7 228C727.835 228 732.001 232.162 732.001 237.297V238.805C732.001 242.087 730.506 245.195 727.943 247.246L727.228 247.82C723.845 250.527 719.638 252 715.306 252H710.775C709.41 252 708.445 250.662 708.876 249.367L713.88 234.359C715.146 230.563 718.699 228.001 722.7 228Z" fill="#8DA5F3"/>
<path d="M758.204 196C761.405 196.001 764.001 198.596 764.001 201.797C764.001 203.216 763.479 204.588 762.536 205.648L735.892 235.621C735.136 229.617 730.381 224.86 724.376 224.105L754.353 197.465C755.414 196.522 756.785 196 758.204 196Z" fill="#8DA5F3"/>
</g>
<g opacity="0.25">
<path d="M276 316H260V300H276V316Z" fill="#E0E0E0"/>
<path d="M296 316H280V300H296V316Z" fill="#E0E0E0"/>
<path d="M316 316H300V300H316V316Z" fill="#E0E0E0"/>
<path d="M296 296H280V293.656C280 292.596 280.422 291.578 281.172 290.828L290.828 281.172C291.578 280.422 292.596 280 293.656 280H296V296Z" fill="#E0E0E0"/>
<path d="M302.344 280C303.404 280 304.422 280.422 305.172 281.172L314.828 290.828C315.578 291.578 316 292.596 316 293.656V296H300V280H302.344Z" fill="#E0E0E0"/>
<path d="M276 262.344C276 263.404 275.578 264.422 274.828 265.172L265.172 274.828C264.422 275.578 263.404 276 262.344 276H260V260H276V262.344Z" fill="#E0E0E0"/>
</g>
<g opacity="0.5">
<path d="M156 252H136V216C136 204.954 144.954 196 156 196V252ZM152 224C149.791 224 148 225.791 148 228C148 230.209 149.791 232 152 232C154.209 232 156 230.209 156 228C156 225.791 154.209 224 152 224Z" fill="#E0E0E0"/>
<path d="M164 196C175.046 196 184 204.954 184 216V252L164 244V196ZM168 220C165.791 220 164 221.791 164 224C164 226.209 165.791 228 168 228C170.209 228 172 226.209 172 224C172 221.791 170.209 220 168 220Z" fill="#E0E0E0"/>
</g>
<g opacity="0.75">
<path d="M116 196C120.418 196 124 199.582 124 204V244C124 248.418 120.418 252 116 252H76C71.5817 252 68 248.418 68 244V204C68 199.582 71.5817 196 76 196H116ZM82 232C78.6863 232 76 234.686 76 238C76 241.314 78.6863 244 82 244C85.3137 244 88 241.314 88 238C88 234.686 85.3137 232 82 232ZM96 218C92.6863 218 90 220.686 90 224C90 227.314 92.6863 230 96 230C99.3137 230 102 227.314 102 224C102 220.686 99.3137 218 96 218ZM110 204C106.686 204 104 206.686 104 210C104 213.314 106.686 216 110 216C113.314 216 116 213.314 116 210C116 206.686 113.314 204 110 204Z" fill="#8EEF97"/>
</g>
<path d="M44.4167 196.001C40.2243 195.962 36.2289 197.665 33.2801 200.669L33.2399 200.711L31.9679 202.045C30.4434 203.644 30.5038 206.176 32.1026 207.7C33.7015 209.225 36.2334 209.165 37.7579 207.566L39.008 206.255C40.4783 204.766 42.397 203.982 44.3434 204C46.2981 204.018 48.2136 204.844 49.6637 206.374C51.1204 207.91 51.9811 210.032 51.9997 212.292C52.0182 214.54 51.2007 216.669 49.7803 218.233L42.7734 225.625C41.9792 226.463 41.0368 227.097 40.0184 227.498C39.0009 227.898 37.9216 228.061 36.8504 227.98C35.779 227.899 34.7266 227.575 33.7638 227.02C32.8002 226.465 31.9437 225.687 31.263 224.727L24.737 229.355C26.0699 231.234 27.7824 232.807 29.7689 233.952C31.7562 235.097 33.966 235.785 36.2477 235.957C38.5296 236.129 40.8159 235.781 42.948 234.942C45.0791 234.104 46.9972 232.798 48.5795 231.128L55.6126 223.709L55.6599 223.658C58.4969 220.559 60.0342 216.451 59.9994 212.226C59.9646 208 58.3597 203.919 55.4698 200.87C52.5733 197.814 48.6089 196.039 44.4167 196.001Z" fill="#FC7F7F"/>
<path d="M27.7523 212.043C25.4704 211.871 23.1841 212.219 21.052 213.058C18.9209 213.896 17.0028 215.202 15.4205 216.872L8.38741 224.291L8.34014 224.342C5.50305 227.441 3.96578 231.549 4.00058 235.774C4.03538 240 5.64027 244.081 8.5302 247.13C11.4267 250.186 15.3911 251.961 19.5833 251.999C23.7757 252.038 27.7711 250.335 30.7199 247.331L30.7681 247.281L32.0252 245.954C33.5449 244.351 33.4772 241.819 31.8739 240.3C30.2706 238.78 27.7389 238.847 26.2191 240.451L24.9883 241.749C23.5185 243.235 21.6013 244.018 19.6566 244C17.7019 243.982 15.7864 243.156 14.3363 241.626C12.8796 240.09 12.0189 237.968 12.0003 235.708C11.9818 233.46 12.7993 231.331 14.2197 229.767L21.2266 222.375C22.0208 221.537 22.9632 220.903 23.9816 220.502C24.9991 220.102 26.0784 219.939 27.1496 220.02C28.221 220.101 29.2734 220.425 30.2362 220.98C31.1998 221.535 32.0563 222.313 32.737 223.273L39.263 218.645C37.9301 216.766 36.2176 215.193 34.2311 214.048C32.2438 212.903 30.034 212.215 27.7523 212.043Z" fill="#FC7F7F"/>
<path d="M874.586 173.414L864.969 183.031L864.359 183.609C861.246 186.428 857.188 188 852.969 188C843.598 187.999 836.001 180.402 836 171.031C836 166.531 837.787 162.214 840.969 159.031L850.586 149.414L874.586 173.414Z" fill="#8DA5F3"/>
<path d="M875.031 132C884.402 132.001 891.999 139.598 892 148.969C892 151.501 891.433 153.976 890.371 156.223C889.781 157.47 889.04 158.648 888.156 159.727C887.803 160.157 887.428 160.572 887.031 160.969L877.414 170.586L853.414 146.586L863.031 136.969C863.428 136.572 863.843 136.197 864.273 135.844C865.137 135.136 866.064 134.521 867.039 134C867.42 133.797 867.809 133.611 868.203 133.438C869.83 132.723 871.565 132.259 873.352 132.082C873.907 132.027 874.468 132 875.031 132Z" fill="#8DA5F3"/>
<g opacity="0.75">
<path d="M800.001 140C803.601 140 806.978 140.956 809.896 142.621C818.64 140.036 825.59 140.326 827.712 144C829.833 147.675 826.608 153.837 819.997 160.117C819.934 171.109 811.007 179.999 800.001 180C796.399 180 793.022 179.041 790.103 177.375C781.359 179.96 774.408 179.675 772.286 176C770.166 172.325 773.391 166.159 780.001 159.879C780.066 148.889 788.996 140 800.001 140ZM818.783 144.535C817.735 142.725 814.699 142.29 810.572 143.027C812.204 144.044 813.686 145.294 814.966 146.738C814.935 146.808 812.174 152.97 799.997 160C787.752 167.069 781.029 166.332 781.029 166.332C780.418 164.502 780.074 162.594 780.009 160.672C777.309 163.876 776.169 166.724 777.212 168.535C779.421 172.361 790.519 170.091 801.997 163.465C813.476 156.838 820.991 148.362 818.783 144.535Z" fill="#E0E0E0"/>
</g>
<g opacity="0.5">
<path d="M736 132C751.464 132 764 144.536 764 160C764 175.464 751.464 188 736 188C720.536 188 708 175.464 708 160C708 144.536 720.536 132 736 132ZM736 172C733.791 172 732 173.791 732 176C732 178.209 733.791 180 736 180C738.209 180 740 178.209 740 176C740 173.791 738.209 172 736 172ZM738.34 140.23C736.012 139.768 733.599 140.006 731.406 140.914C729.215 141.822 727.342 143.36 726.023 145.332C724.796 147.169 725.289 149.655 727.125 150.883C728.962 152.11 731.444 151.613 732.672 149.777C733.111 149.12 733.738 148.607 734.469 148.305C735.2 148.002 736.005 147.924 736.781 148.078C737.556 148.233 738.269 148.613 738.828 149.172C739.387 149.731 739.767 150.443 739.922 151.219C740.076 151.995 739.998 152.8 739.695 153.531C739.393 154.261 738.88 154.885 738.223 155.324C738.124 155.39 738.022 155.455 737.918 155.512C736.673 156.192 735.279 157.162 734.152 158.477C733.009 159.811 732 161.68 732 164L732.02 164.41C732.225 166.426 733.93 168 736 168C738.07 168 739.775 166.426 739.98 164.41L739.996 164.043C739.99 164.061 739.999 163.946 740.227 163.68C740.533 163.322 741.06 162.91 741.754 162.531C742.065 162.361 742.371 162.175 742.668 161.977C744.64 160.658 746.178 158.785 747.086 156.594C747.994 154.401 748.232 151.988 747.77 149.66C747.307 147.333 746.162 145.194 744.484 143.516C742.806 141.838 740.668 140.693 738.34 140.23Z" fill="#8EEF97"/>
</g>
<g opacity="0.5">
<path d="M716.059 370.486C716.282 371.375 717.083 372.001 718 372.001H728C728.917 372.001 729.719 371.375 729.942 370.486L731.563 364.001H740.438L742.059 370.486C742.282 371.375 743.083 372.001 744 372.001H754C754.917 372.001 755.719 371.375 755.942 370.486L757.563 364.001H760V368.427C759.999 370.64 758.822 372.687 756.91 373.802C743.989 381.339 728.012 381.339 715.09 373.802C713.178 372.687 712.001 370.64 712 368.427V364.001H714.438L716.059 370.486Z" fill="#8DA5F3"/>
<path d="M760 360.001H756C755.082 360.001 754.281 360.627 754.059 361.517L752.438 368.001H745.563L743.942 361.517C743.719 360.627 742.918 360.001 742 360.001H730C729.082 360.001 728.281 360.627 728.059 361.517L726.438 368.001H719.563L717.942 361.517C717.719 360.627 716.918 360.001 716 360.001H712V356.001C712 354.832 712.089 353.681 712.25 352.556L707.852 350.114C705.922 349.041 705.225 346.608 706.297 344.677L708.242 341.177C709.315 339.247 711.749 338.551 713.68 339.622L716.934 341.427C718.112 339.887 719.474 338.496 720.985 337.282L719.328 331.493C718.721 329.369 719.954 327.155 722.078 326.548L725.926 325.45C728.05 324.844 730.261 326.073 730.867 328.197L732.047 332.325C733.333 332.112 734.654 332.001 736 332.001C737.345 332.001 738.664 332.113 739.949 332.325L741.133 328.197C741.74 326.072 743.954 324.844 746.078 325.45L749.926 326.548C752.049 327.156 753.279 329.37 752.672 331.493L751.012 337.282C752.501 338.479 753.845 339.847 755.012 341.361L758.317 339.529C760.247 338.456 762.681 339.15 763.754 341.079L765.699 344.575C766.772 346.507 766.076 348.944 764.145 350.017L759.735 352.462C759.905 353.617 760 354.799 760 356.001V360.001ZM724 356.001C726.209 356.001 728 354.21 728 352.001C728 349.792 726.209 348.001 724 348.001C721.791 348.001 720 349.792 720 352.001C720.001 354.21 721.791 356.001 724 356.001ZM748 356.001C750.209 356.001 752 354.21 752 352.001C752 349.792 750.209 348.001 748 348.001C745.791 348.001 744 349.792 744 352.001C744.001 354.21 745.791 356.001 748 356.001Z" fill="#8DA5F3"/>
</g>
<g opacity="0.5">
<path d="M220 332C222.805 332 225.498 332.483 228 333.367V340L226.582 341.418C224.574 340.51 222.347 340 220 340C211.163 340 204 347.163 204 356C204 364.837 211.163 372 220 372C228.837 372 236 364.837 236 356C236 353.653 235.49 351.426 234.582 349.418L236 348H242.629C243.514 350.503 244 353.194 244 356C244 369.255 233.255 380 220 380C206.745 380 196 369.255 196 356C196 342.745 206.745 332 220 332Z" fill="#8DA5F3"/>
<path d="M243.055 330.113L244.586 328.586C245.367 327.805 246.633 327.805 247.414 328.586C248.195 329.367 248.195 330.633 247.414 331.414L245.883 332.941L252 336L244 344H234.824L226.883 351.941C227.587 353.132 228 354.516 228 356C228 360.418 224.418 364 220 364C215.582 364 212 360.418 212 356C212 351.582 215.582 348 220 348C221.482 348 222.865 348.411 224.055 349.113L232 341.168V332L240 324L243.055 330.113Z" fill="#8DA5F3"/>
</g>
<path d="M873.039 110L880.137 118.875C875.575 122.099 870.011 124 864 124C857.988 124 852.422 122.1 847.859 118.875L854.961 110H873.039Z" fill="#8EEF97"/>
<path d="M837.258 87.8555L846.391 91.5078L851.754 107.598L844.762 116.336C839.369 111.232 836 104.011 836 96C836 93.1598 836.425 90.419 837.211 87.8359L837.258 87.8555Z" fill="#8EEF97"/>
<path d="M890.785 87.8359C891.572 90.4194 892 93.1595 892 96C892 104.012 888.629 111.232 883.234 116.336L876.242 107.598L881.605 91.5078L890.742 87.8555L890.785 87.8359Z" fill="#8EEF97"/>
<path d="M877.645 90.7344L872.559 106H855.441L850.352 90.7344L864 80.5L877.645 90.7344Z" fill="#8EEF97"/>
<path d="M862 76.9961L847.695 87.7227L838.742 84.1445L838.648 84.1055C842.853 75.1606 851.648 68.8089 862 68.0781V76.9961Z" fill="#8EEF97"/>
<path d="M866 68.0781C876.351 68.8089 885.143 75.1614 889.348 84.1055L889.258 84.1445L880.301 87.7227L866 76.9961V68.0781Z" fill="#8EEF97"/>
<g opacity="0.5">
<path d="M155.969 134.351C158.46 132.898 161.54 132.898 164.031 134.351L180.031 143.685C182.489 145.119 184 147.75 184 150.595V169.405C184 172.25 182.489 174.882 180.031 176.315L164.031 185.649C161.54 187.102 158.46 187.102 155.969 185.649L139.969 176.315C137.511 174.882 136 172.25 136 169.405V150.595C136 147.75 137.511 145.119 139.969 143.685L155.969 134.351Z" fill="#FC7F7F"/>
</g>
<g opacity="0.75">
<path d="M108 148V187.27C106.968 187.74 105.843 188 104.688 188H76C71.5817 188 68 184.418 68 180V151.312C68.0002 150.157 68.2602 149.032 68.7305 148H108Z" fill="#8DA5F3"/>
<path d="M122.883 135.941C123.587 137.132 124 138.516 124 140V168.688C124 170.809 123.156 172.844 121.656 174.344L112 184V146.828L122.883 135.941Z" fill="#8DA5F3"/>
<path d="M116 132C117.482 132 118.865 132.411 120.055 133.113L109.172 144H72L81.6562 134.344C83.1563 132.844 85.1912 132 87.3125 132H116Z" fill="#8DA5F3"/>
</g>
<g clip-path="url(#clip0_101_813)">
<path d="M31.999 160C33.514 160 34.8995 160.856 35.5771 162.211L47.5771 186.211C48.5651 188.187 47.764 190.59 45.7881 191.578C43.8123 192.566 41.4087 191.765 40.4209 189.789L38.0654 185.078L21.4834 191.715C19.942 192.33 18.1777 191.929 17.0537 190.707C15.931 189.485 15.6788 187.695 16.4209 186.211L28.4209 162.211L28.706 161.727C29.4456 160.655 30.6735 160 31.999 160ZM28.2803 180.375L34.4756 177.898L31.999 172.945L28.2803 180.375Z" fill="#E0E0E0"/>
<path d="M31.999 144C34.1052 144 36.175 144.556 37.999 145.609C39.8225 146.662 41.3366 148.177 42.3896 150C43.4941 151.913 42.8413 154.36 40.9287 155.465C39.0158 156.569 36.5684 155.913 35.4639 154C35.1128 153.392 34.6069 152.886 33.999 152.535C33.3912 152.184 32.7007 152 31.999 152C31.2973 152 30.6067 152.184 29.999 152.535C29.3913 152.886 28.8851 153.392 28.5342 154C27.4294 155.913 24.9822 156.569 23.0693 155.465C21.1575 154.36 20.5045 151.913 21.6084 150C22.6613 148.177 24.1757 146.662 25.999 145.609C27.823 144.556 29.8929 144 31.999 144Z" fill="#E0E0E0"/>
<path d="M31.999 128C36.9136 128 41.7428 129.293 45.999 131.75C50.2554 134.207 53.7915 137.744 56.249 142C57.3531 143.913 56.6971 146.36 54.7842 147.465C52.8711 148.569 50.4238 147.913 49.3193 146C47.564 142.96 45.0392 140.435 41.999 138.68C38.9588 136.925 35.5095 136 31.999 136C28.4886 136 25.0391 136.924 21.999 138.68C18.959 140.435 16.4339 142.96 14.6787 146C13.574 147.913 11.1269 148.569 9.21386 147.465C7.30163 146.36 6.64538 143.913 7.74902 142C10.2064 137.744 13.7428 134.207 17.999 131.75C22.2551 129.293 27.0845 128 31.999 128Z" fill="#E0E0E0"/>
</g>
<g opacity="0.75">
<path d="M793.078 92C794.462 94.3893 797.04 96 800 96C802.96 96 805.538 94.3893 806.922 92H820V112C820 118.627 814.627 124 808 124H792C785.373 124 780 118.627 780 112V92H793.078Z" fill="#FC7F7F"/>
<path d="M800 76C802.209 76 804 77.7909 804 80V88C804 90.2091 802.209 92 800 92C797.791 92 796 90.2091 796 88V80C796 77.7909 797.791 76 800 76Z" fill="#FC7F7F"/>
<path d="M808 68C814.627 68 820 73.3726 820 80V88H808V80C808 75.5817 804.418 72 800 72C795.582 72 792 75.5817 792 80V88H780V80C780 73.3726 785.373 68 792 68H808Z" fill="#FC7F7F"/>
</g>
<g opacity="0.5">
<path d="M744 80C748.418 80 752 83.5817 752 88C752 92.4183 748.418 96 744 96C739.582 96 736 92.4183 736 88C736 83.5817 739.582 80 744 80Z" fill="#8DA5F3"/>
<path d="M756 68C760.418 68 764 71.5817 764 76V104.688L763.961 105.477C763.779 107.308 762.969 109.031 761.656 110.344L750.344 121.656L749.758 122.188C748.334 123.354 746.544 124 744.688 124H716L715.184 123.957C711.149 123.548 708 120.143 708 116V87.3125C708 85.4559 708.646 83.6656 709.812 82.2422L710.344 81.6562L721.656 70.3438C723.156 68.8437 725.191 68.0003 727.312 68H756ZM727.312 72C726.252 72.0003 725.234 72.422 724.484 73.1719L713.656 84H732V88H712V116C712 118.209 713.791 120 716 120H744V100H748V118.344L758.828 107.516C759.578 106.766 760 105.748 760 104.688V76C760 75.6415 759.948 75.2954 759.859 74.9648L753.414 81.4141L750.586 78.5859L757.031 72.1367C756.702 72.0491 756.357 72 756 72H727.312Z" fill="#8DA5F3"/>
</g>
<g opacity="0.25">
<path d="M617.172 81.1716C618.734 79.6096 621.266 79.6095 622.828 81.1716L634.828 93.1716C636.39 94.7336 636.39 97.2657 634.828 98.8278L622.828 110.828C621.266 112.39 618.734 112.39 617.172 110.828C615.61 109.266 615.61 106.734 617.172 105.172L622.344 99.9997H593.656L598.828 105.172C600.39 106.734 600.39 109.266 598.828 110.828C597.266 112.39 594.734 112.39 593.172 110.828L581.172 98.8278C579.61 97.2657 579.61 94.7337 581.172 93.1716L593.172 81.1716C594.734 79.6095 597.266 79.6095 598.828 81.1716C600.39 82.7337 600.39 85.2657 598.828 86.8278L593.656 91.9997H622.344L617.172 86.8278C615.61 85.2657 615.61 82.7337 617.172 81.1716Z" fill="#8EEF97"/>
</g>
<g opacity="0.25">
<path d="M564 92C568.418 92 572 95.5817 572 100C572 104.418 568.418 108 564 108C568.418 108 572 111.582 572 116C572 120.418 568.418 124 564 124C559.582 124 556 120.418 556 116H547.234C545.749 115.999 544.781 114.435 545.445 113.105L548 108L545.445 102.895C544.781 101.565 545.749 100.001 547.234 100H556C556 95.5817 559.582 92 564 92Z" fill="#FC7F7F"/>
<path d="M524 88C528.418 88 532 91.5817 532 96H538.766C539.523 96.0006 540.216 96.4284 540.555 97.1055L544 104L540.555 110.895C540.216 111.572 539.523 111.999 538.766 112H532C532 116.418 528.418 120 524 120C519.582 120 516 116.418 516 112C516 107.582 519.582 104 524 104C519.582 104 516 100.418 516 96C516 91.5817 519.582 88 524 88Z" fill="#FC7F7F"/>
<path d="M521.172 73.1719C522.734 71.6098 525.266 71.6098 526.828 73.1719L530.828 77.1719C532.39 78.734 532.39 81.266 530.828 82.8281C529.266 84.3902 526.734 84.3902 525.172 82.8281L521.172 78.8281C519.61 77.266 519.61 74.734 521.172 73.1719Z" fill="#FC7F7F"/>
<path d="M561.172 73.1719C562.734 71.6098 565.266 71.6098 566.828 73.1719C568.39 74.734 568.39 77.266 566.828 78.8281L562.828 82.8281C561.266 84.3902 558.734 84.3902 557.172 82.8281C555.61 81.266 555.61 78.734 557.172 77.1719L561.172 73.1719Z" fill="#FC7F7F"/>
<path d="M544 64C546.209 64 548 65.7909 548 68V76C548 78.2091 546.209 80 544 80C541.791 80 540 78.2091 540 76V68C540 65.7909 541.791 64 544 64Z" fill="#FC7F7F"/>
</g>
<g opacity="0.25">
<path d="M468.172 101.826C469.55 104.362 471.638 106.446 474.172 107.826L468 114.002V120.002C467.999 122.21 466.209 124.002 464 124.002C461.792 124.002 460.001 122.21 460 120.002V116.002H456C453.792 116.002 452.001 114.21 452 112.002C452 109.793 453.791 108.002 456 108.002H462L468.172 101.826Z" fill="#8DA5F3"/>
<path d="M482.434 67.4665C486.452 66.859 494.753 66.7549 502 74.0017C509.245 81.2485 509.139 89.5454 508.531 93.5642C508.288 95.1722 507.301 96.5216 506 97.4977L502.465 100.15C495.806 105.143 487.333 107.067 479.172 105.435C474.829 104.566 471.431 101.169 470.562 96.8259C469.988 93.9519 469.859 91.0393 470.145 88.1813C471.975 90.5042 474.813 92.001 478 92.0017C483.521 92.0007 487.999 87.5229 488 82.0017C488 76.4794 483.522 72.0026 478 72.0017C477.649 72.0017 477.299 72.0171 476.957 72.0524L478.5 69.9977C479.476 68.6973 480.826 67.7101 482.434 67.4665ZM499.312 77.6579C496.189 74.5344 492.39 73.268 490.828 74.8298C489.268 76.3925 490.533 80.1909 493.656 83.3142C496.779 86.4369 500.578 87.7024 502.141 86.1423C503.702 84.5802 502.436 80.7818 499.312 77.6579Z" fill="#8DA5F3"/>
</g>
<g opacity="0.25">
<path d="M417.832 68.0574C424.295 68.4812 430.413 71.1339 435.141 75.5613C439.868 79.989 442.916 85.9211 443.762 92.3426C444.607 98.7646 443.198 105.283 439.777 110.784C436.357 116.285 431.134 120.432 425 122.514C418.866 124.596 412.199 124.488 406.137 122.206C400.074 119.924 394.989 115.609 391.75 109.999C390.647 108.086 391.302 105.638 393.215 104.534C395.128 103.43 397.575 104.087 398.68 105.999C400.993 110.005 404.623 113.088 408.953 114.718C413.284 116.347 418.048 116.424 422.43 114.936C426.81 113.449 430.541 110.49 432.984 106.561C435.427 102.632 436.432 97.9763 435.828 93.3895C435.224 88.8024 433.049 84.5639 429.672 81.4012C426.295 78.2387 421.925 76.3445 417.309 76.0418C412.692 75.7393 408.112 77.0467 404.352 79.741C401.408 81.8507 399.111 84.7129 397.676 87.9988H404C406.209 87.9988 407.999 89.7903 408 91.9988C408 94.208 406.209 95.9988 404 95.9988H388C385.791 95.9988 384 94.208 384 91.9988V75.9988C384.001 73.7903 385.791 71.9988 388 71.9988C390.209 71.9988 391.999 73.7903 392 75.9988V81.5887C393.955 78.3345 396.561 75.484 399.691 73.241C404.957 69.4681 411.368 67.6338 417.832 68.0574Z" fill="#E0E0E0"/>
<path d="M420 91.9988H428V99.9988H416C413.791 99.9988 412 98.208 412 95.9988V83.9988H420V91.9988Z" fill="#E0E0E0"/>
</g>
<g opacity="0.25">
<path d="M380 76V92L348 124H332L380 76Z" fill="#8EEF97"/>
<path d="M380 116C380 120.418 376.418 124 372 124H364L380 108V116Z" fill="#8EEF97"/>
<path d="M372 68L324 116V100L356 68H372Z" fill="#8EEF97"/>
<path d="M324 84V76C324 71.5817 327.582 68 332 68H340L324 84Z" fill="#8EEF97"/>
</g>
<g opacity="0.25">
<path d="M224 68C232.837 68 240 75.1634 240 84C240 84.0469 239.996 84.0938 239.996 84.1406C246.783 85.1094 252 90.9457 252 98C252 105.732 245.732 112 238 112H228V124H220V112H210C202.268 112 196 105.732 196 98C196 90.947 201.215 85.111 208 84.1406C208 84.0938 208 84.0469 208 84C208 75.1634 215.163 68 224 68Z" fill="#8DA5F3"/>
</g>
<g opacity="0.5">
<path d="M168 85.6641C175.064 88.7503 180 95.7987 180 104C180 115.046 171.046 124 160 124C148.954 124 140 115.046 140 104C140 95.7987 144.936 88.7503 152 85.6641V80H150C148.895 80 148 79.1046 148 78C148 76.8954 148.895 76 150 76H170C171.105 76 172 76.8954 172 78C172 79.1046 171.105 80 170 80H168V85.6641Z" fill="#E0E0E0"/>
<path d="M168 72H152V68H168V72Z" fill="#E0E0E0"/>
</g>
<g opacity="0.75">
<path d="M96 68C100.418 68 104 71.5817 104 76C104 78.959 102.388 81.534 100 82.918V84H108C110.209 84 112 85.7909 112 88C112 90.2091 110.209 92 108 92H100V115.59C102.101 115.161 104.128 114.401 106 113.32C109.04 111.565 111.565 109.04 113.32 106C113.403 105.856 113.493 105.719 113.59 105.59L108 100H124V116L119.387 111.387C116.993 115.025 113.784 118.065 110 120.25C105.744 122.707 100.915 124 96 124C91.0852 124 86.2564 122.707 82 120.25C78.2153 118.065 75.0031 115.025 72.6094 111.387L68 116V100H84L78.4062 105.59C78.504 105.72 78.5964 105.856 78.6797 106C80.435 109.04 82.9597 111.565 86 113.32C87.8717 114.401 89.8995 115.161 92 115.59V92H84C81.7909 92 80 90.2091 80 88C80 85.7909 81.7909 84 84 84H92V82.918C89.6116 81.534 88 78.959 88 76C88 71.5817 91.5817 68 96 68ZM96 72C93.7909 72 92 73.7909 92 76C92 78.2091 93.7909 80 96 80C98.2091 80 100 78.2091 100 76C100 73.7909 98.2091 72 96 72Z" fill="#8EEF97"/>
</g>
<path d="M40 84C42.2091 84 44 85.7909 44 88V120C44 122.209 42.2091 124 40 124H8C5.79086 124 4 122.209 4 120V88C4 85.7909 5.79086 84 8 84H40Z" fill="#FC7F7F"/>
<path d="M52 68C56.4183 68 60 71.5817 60 76V104.688L59.9609 105.477C59.7792 107.308 58.9691 109.031 57.6562 110.344L48 120V114.344L54.8281 107.516C55.578 106.766 55.9997 105.748 56 104.688V76C56 75.6415 55.9478 75.2954 55.8594 74.9648L46.8828 83.9414C46.1936 82.7752 45.2214 81.8017 44.0547 81.1133L53.0312 72.1367C52.7021 72.0491 52.3568 72 52 72H23.3125C22.2521 72.0003 21.2342 72.422 20.4844 73.1719L13.6562 80H8L17.6562 70.3438C19.1563 68.8437 21.1912 68.0003 23.3125 68H52Z" fill="#FC7F7F"/>
<path d="M865.629 59.7227C864.831 60.8393 863.169 60.8393 862.371 59.7227L854 48H848C841.373 48 836 42.6274 836 36V20C836 13.3726 841.373 8 848 8H880C886.627 8 892 13.3726 892 20V36C892 42.6274 886.627 48 880 48H874L865.629 59.7227ZM864 36C861.791 36 860 37.7909 860 40C860 42.2091 861.791 44 864 44C866.209 44 868 42.2091 868 40C868 37.7909 866.209 36 864 36ZM864 12C861.791 12 860 13.7909 860 16V28C860 30.2091 861.791 32 864 32C866.209 32 868 30.2091 868 28V16C868 13.7909 866.209 12 864 12Z" fill="#8DA5F3"/>
<g opacity="0.75">
<path d="M808 4C812.418 4 816 7.58172 816 12C816 13.4773 815.595 14.8576 814.895 16.0443C814.714 16.3513 814.746 16.746 814.998 16.998C815.25 17.2501 815.645 17.2819 815.952 17.1011C817.139 16.4022 818.522 16 820 16C824.418 16 828 19.5817 828 24C828 28.4183 824.418 32 820 32C817.605 32 815.462 30.9413 813.996 29.2734L797.273 45.9961C798.941 47.4622 800 49.6048 800 52C800 56.4183 796.418 60 792 60C787.582 60 784 56.4183 784 52C784 50.5224 784.402 49.1395 785.101 47.952C785.282 47.6448 785.25 47.2501 784.998 46.998C784.746 46.746 784.351 46.7141 784.044 46.8951C782.858 47.5946 781.477 48 780 48C775.582 48 772 44.4183 772 40C772 35.5817 775.582 32 780 32C782.393 32 784.534 33.0571 786 34.7227L802.723 18C801.057 16.5339 800 14.3932 800 12C800 7.58172 803.582 4 808 4Z" fill="#E0E0E0"/>
</g>
<g opacity="0.5">
<path d="M760 12V16H764V24H760V40H764V48H760V56H748V48H742V56H730V48H724V56H712V48H708V40H712V24H708V16H712V12L718 4L724 12V16H730V12L736 4L742 12V16H748V12L754 4L760 12ZM724 24V40H730V24H724ZM742 24V40H748V24H742Z" fill="#8EEF97"/>
</g>
<g opacity="0.5">
<path d="M636 31.9987C638.209 31.9987 639.999 33.79 640 35.9987V51.9987C640 54.2078 638.209 55.9987 636 55.9987C633.791 55.9987 632 54.2078 632 51.9987V46.4088C630.515 48.8819 628.653 51.1268 626.461 53.0494C622.298 56.7005 617.146 59.0373 611.656 59.7604C606.166 60.4832 600.584 59.5608 595.617 57.1119C590.651 54.6626 586.519 50.7945 583.75 45.9987C582.647 44.0857 583.302 41.6381 585.215 40.5338C587.128 39.4298 589.575 40.0863 590.68 41.9987C592.657 45.4237 595.606 48.1866 599.152 49.9362C602.7 51.6855 606.688 52.3428 610.609 51.8268C614.531 51.3104 618.214 49.6419 621.188 47.0338C623.407 45.0873 625.156 42.6817 626.328 39.9987H620C617.791 39.9987 616 38.2078 616 35.9987C616.001 33.7901 617.791 31.9987 620 31.9987H636Z" fill="#8DA5F3"/>
<path d="M604.344 4.23694C609.834 3.51423 615.417 4.43673 620.383 6.88538C625.349 9.33457 629.481 13.2031 632.25 17.9987C633.354 19.9116 632.698 22.3589 630.785 23.4635C628.872 24.5681 626.425 23.9118 625.32 21.9987C623.343 18.5739 620.394 15.8106 616.848 14.0612C613.3 12.312 609.312 11.6545 605.391 12.1705C601.469 12.6868 597.786 14.3557 594.812 16.9635C592.594 18.9096 590.844 21.3162 589.672 23.9987H596C598.209 23.9987 599.999 25.79 600 27.9987C600 30.2078 598.209 31.9987 596 31.9987H580C577.791 31.9987 576 30.2078 576 27.9987V11.9987C576.001 9.79005 577.791 7.99866 580 7.99866C582.209 7.99866 583.999 9.79005 584 11.9987V17.5846C585.485 15.1131 587.348 12.8694 589.539 10.9479C593.702 7.29711 598.854 4.95995 604.344 4.23694Z" fill="#8DA5F3"/>
</g>
<g opacity="0.5">
<path d="M548 36C552.418 36 556 39.5817 556 44C556 48.4183 552.418 52 548 52H524C519.582 52 516 48.4183 516 44C516 39.5817 519.582 36 524 36H548ZM524 40C521.791 40 520 41.7909 520 44C520 46.2091 521.791 48 524 48C526.209 48 528 46.2091 528 44C528 41.7909 526.209 40 524 40ZM536 40C533.791 40 532 41.7909 532 44C532 46.2091 533.791 48 536 48C538.209 48 540 46.2091 540 44C540 41.7909 538.209 40 536 40ZM548 40C545.791 40 544 41.7909 544 44C544 46.2091 545.791 48 548 48C550.209 48 552 46.2091 552 44C552 41.7909 550.209 40 548 40Z" fill="#E0E0E0"/>
<path d="M564 44L572 48V52H564C559.582 52 556 48.4183 556 44V36H560L564 44Z" fill="#E0E0E0"/>
<path d="M537.117 12C538.838 12.0001 540.365 13.1017 540.91 14.7344L544 24L549.789 26.8945C551.144 27.5721 552 28.9576 552 30.4727V32H520V16C520 13.7909 521.791 12 524 12H537.117ZM524 24H540L538 16H524V24Z" fill="#E0E0E0"/>
</g>
<g opacity="0.5">
<path d="M476 60H452V57.6562C452 56.5956 452.422 55.5781 453.172 54.8281L470.828 37.1719C471.578 36.4219 472.596 36.0002 473.656 36H476V60Z" fill="#8EEF97"/>
<path d="M508 56C508 58.2091 506.209 60 504 60H488C485.791 60 484 58.2091 484 56V46.4023L490 50.4023L496 46.4023L502 50.4023L508 46.4023V56Z" fill="#8EEF97"/>
<path d="M504 36C506.209 36 508 37.7909 508 40V41.5938L506.891 42.3359L502 45.5938L496 41.5977L490 45.5938L485.109 42.3359L484 41.5938V40C484 37.7909 485.791 36 488 36H504Z" fill="#8EEF97"/>
<path d="M472 4C474.209 4 476 5.79086 476 8V24C476 26.2091 474.209 28 472 28H456C453.791 28 452 26.2091 452 24V8C452 5.79086 453.791 4 456 4H472Z" fill="#8EEF97"/>
<path d="M486.344 4C487.404 4.00016 488.422 4.42187 489.172 5.17188L506.828 22.8281C507.578 23.5781 508 24.5956 508 25.6562V28H484V4H486.344Z" fill="#8EEF97"/>
</g>
<g opacity="0.5">
<path d="M414.446 27.8945C416.602 29.4875 418.508 31.3945 420.102 33.5508L401.653 51.9961L402.828 53.1719C404.39 54.7339 404.39 57.2661 402.828 58.8281C401.266 60.3902 398.734 60.3901 397.172 58.8281L389.172 50.8281C387.61 49.266 387.61 46.734 389.172 45.1719C390.734 43.6099 393.266 43.6098 394.828 45.1719L395.996 46.3398L414.446 27.8945Z" fill="#FC7F7F"/>
<path d="M436.203 4C440.509 4.00016 444 7.49138 444 11.7969C444 17.1072 442.193 22.2595 438.875 26.4062L429.789 37.7617C428.979 38.7736 427.383 38.5581 426.871 37.3672C424.94 32.861 421.979 28.9241 418.282 25.832C417.958 25.5647 417.63 25.3028 417.297 25.0469C415.262 23.4817 413.031 22.1564 410.633 21.1289C409.442 20.6172 409.227 19.0212 410.239 18.2109L421.594 9.125C425.741 5.8077 430.893 4.00022 436.203 4ZM437.414 10.5859C436.633 9.80496 435.367 9.80504 434.586 10.5859L422.586 22.5859C421.805 23.367 421.805 24.633 422.586 25.4141C423.367 26.195 424.633 26.195 425.414 25.4141L437.414 13.4141C438.195 12.6331 438.195 11.3669 437.414 10.5859Z" fill="#FC7F7F"/>
</g>
<g opacity="0.5">
<path d="M340 32C340 34.5025 339.617 36.9155 338.906 39.1836L335.609 37.2812L333.609 40.7422L337.375 42.9141C335.843 45.9087 333.702 48.5388 331.113 50.6406C326.692 45.6896 324 39.1604 324 32C324 24.8386 326.69 18.3067 331.113 13.3555C333.705 15.4587 335.846 18.0926 337.379 21.0898L333.605 23.2695L335.609 26.7305L338.91 24.8242C339.619 27.09 340 29.5005 340 32Z" fill="#8DA5F3"/>
<path d="M370 53.4414C365.132 57.532 358.856 60 352 60C345.144 60 338.868 57.532 334 53.4414C336.804 51.085 339.137 48.1901 340.844 44.9141L344 46.7422L346 43.2812L342.441 41.2227C343.449 38.3343 344 35.2318 344 32C344 28.7708 343.447 25.6715 342.441 22.7852L346 20.7305L344 17.2695L340.848 19.0898C339.141 15.8112 336.806 12.9125 334 10.5547C338.867 6.46508 345.145 4 352 4C358.855 4 365.133 6.46508 370 10.5547C367.145 12.9534 364.781 15.9129 363.066 19.2617L359.609 17.2695L357.609 20.7305L361.496 22.9727C360.531 25.8058 360 28.8404 360 32C360 35.1613 360.534 38.1967 361.5 41.0312L357.609 43.2812L359.609 46.7422L363.07 44.7422C364.784 48.0884 367.147 51.0441 370 53.4414Z" fill="#8DA5F3"/>
<path d="M380 32C380 39.1595 377.311 45.6898 372.891 50.6406C370.25 48.4977 368.077 45.8062 366.539 42.7383L370 40.7422L368 37.2773L365.039 38.9883C364.367 36.7766 364 34.4313 364 32C364 29.5704 364.364 27.2259 365.035 25.0156L368 26.7305L370 23.2695L366.535 21.2656C368.074 18.195 370.248 15.4997 372.891 13.3555C377.312 18.3065 380 24.8395 380 32Z" fill="#8DA5F3"/>
</g>
<g opacity="0.5">
<path d="M300 4C308.837 4 316 11.1634 316 20C316 28.8366 308.837 36 300 36C297.653 36 295.426 35.4899 293.418 34.582L288 40V48H280V56H272L268 60H260V52L285.418 26.582C284.51 24.5739 284 22.3471 284 20C284 11.1634 291.163 4 300 4ZM304 12C301.791 12 300 13.7909 300 16C300 18.2091 301.791 20 304 20C306.209 20 308 18.2091 308 16C308 13.7909 306.209 12 304 12Z" fill="#E0E0E0"/>
</g>
<g opacity="0.5">
<path d="M224 12C225.657 12 227 13.3431 227 15C227 16.2249 226.263 17.2723 225.211 17.7383C224.95 18.0278 224.455 18.7343 223.914 20.0859C222.771 22.9442 222 27.2324 222 32C222 32.6611 222.014 33.313 222.043 33.9531C222.684 33.9818 223.337 34 224 34C228.768 34 233.056 33.2292 235.914 32.0859C237.265 31.5454 237.968 31.046 238.258 30.7852C238.724 29.7341 239.776 29 241 29C242.657 29 244 30.3434 244 32C244 32.5244 243.871 33.0493 243.613 33.5664C243.357 34.0785 242.975 34.5815 242.477 35.0625C241.481 36.0236 240.015 36.9064 238.141 37.6562C234.39 39.1563 229.304 40 224 40C223.588 40 223.178 39.9827 222.77 39.9727C223.079 41.4665 223.468 42.799 223.914 43.9141C224.453 45.2623 224.95 45.967 225.211 46.2578C226.264 46.7235 227 47.7745 227 49C227 50.6569 225.657 52 224 52C223.475 52 222.951 51.8715 222.434 51.6133C221.921 51.3573 221.419 50.9748 220.938 50.4766C219.976 49.4809 219.094 48.0153 218.344 46.1406C217.57 44.2055 216.973 41.9145 216.574 39.4219C214.083 39.0231 211.793 38.4297 209.859 37.6562C207.985 36.9064 206.519 36.0236 205.523 35.0625C205.025 34.5815 204.643 34.0785 204.387 33.5664C204.129 33.0493 204 32.5244 204 32C204 30.3434 205.343 29 207 29C208.223 29 209.271 29.7349 209.738 30.7852C210.027 31.0455 210.731 31.5441 212.086 32.0859C213.2 32.5315 214.532 32.9177 216.023 33.2266C216.013 32.8193 216 32.4104 216 32C216 26.6961 216.844 21.61 218.344 17.8594C219.094 15.9847 219.976 14.5191 220.938 13.5234C221.419 13.0252 221.921 12.6427 222.434 12.3867L222.82 12.2188C223.211 12.0729 223.606 12 224 12Z" fill="#8EEF97"/>
<path d="M245.172 5.17188C246.734 3.60978 249.266 3.60978 250.828 5.17188C252.39 6.73397 252.39 9.26603 250.828 10.8281L246.828 14.8281C246.693 14.9637 246.543 15.0794 246.395 15.1914C249.914 19.8727 252 25.6925 252 32C252 47.464 239.464 60 224 60C217.693 60 211.873 57.9137 207.191 54.3945C207.079 54.5435 206.964 54.6925 206.828 54.8281L202.828 58.8281C201.266 60.3902 198.734 60.3902 197.172 58.8281C195.61 57.266 195.61 54.734 197.172 53.1719L201.172 49.1719C201.307 49.0365 201.453 48.9166 201.602 48.8047C198.084 44.1242 196 38.3055 196 32C196 16.536 208.536 4 224 4C230.306 4 236.124 6.08435 240.805 9.60156C240.917 9.45285 241.036 9.30728 241.172 9.17188L245.172 5.17188ZM224 10C211.85 10 202 19.8497 202 32C202 44.1503 211.85 54 224 54C236.15 54 246 44.1503 246 32C246 19.8497 236.15 10 224 10Z" fill="#8EEF97"/>
</g>
<g opacity="0.5">
<path d="M164 20.4844V20C164 17.7909 162.209 16 160 16C157.929 16 156.225 17.5733 156.02 19.5898L155.98 20.4102C155.775 22.4267 154.071 24 152 24C149.791 24 148 22.2091 148 20C148 13.3726 153.373 8 160 8C166.627 8 172 13.3726 172 20V20.4844C172 23.7952 170.685 26.9711 168.344 29.3125L165.926 31.7266L186.563 48.9258C187.856 50.0039 188.335 51.7799 187.762 53.3633C187.188 54.9461 185.684 56 184 56H136C134.316 56 132.812 54.9461 132.238 53.3633C131.665 51.7799 132.144 50.0039 133.438 48.9258L157.32 29.0234L162.688 23.6562C163.528 22.8152 164 21.6735 164 20.4844ZM147.051 48H172.949L160 37.207L147.051 48Z" fill="#FC7F7F"/>
</g>
<g opacity="0.75">
<path d="M96 28.0011C98.2091 28.0011 100 29.792 100 32.0011V40.0011C99.9997 45.8178 98.2522 50.474 96.5117 53.6652C95.6411 55.2611 94.7621 56.5082 94.0859 57.3722C93.6905 57.8774 92.4141 59.3194 92.8281 58.8292C91.2662 60.3904 88.7338 60.3904 87.1719 58.8292C85.61 57.2674 85.6104 54.7351 87.1719 53.173C87.3318 53.003 88.4122 51.8093 89.4883 49.837C90.7473 47.5288 91.9997 44.1825 92 40.0011V32.0011C92 29.792 93.7909 28.0011 96 28.0011Z" fill="#8DA5F3"/>
<path d="M96 16.0011C104.837 16.0011 112 23.1646 112 32.0011V36.0011C111.999 38.2096 110.209 40.0011 108 40.0011C105.791 40.0011 104.001 38.2096 104 36.0011V32.0011C104 27.5828 100.418 24.0011 96 24.0011C91.5824 24.0011 88.0005 27.5829 88 32.0011V36.0011C87.9995 43.358 83.8673 51.6391 75.7539 55.5949C73.7692 56.562 71.375 55.7386 70.4062 53.755C69.4386 51.77 70.2619 49.376 72.2461 48.4074C77.3146 45.9367 79.9995 40.6431 80 36.0011V32.0011C80.0005 23.1653 87.1634 16.0011 96 16.0011Z" fill="#8DA5F3"/>
<path d="M104.422 46.212C105.41 44.2361 107.813 43.435 109.789 44.423C111.765 45.4111 112.566 47.8144 111.578 49.7902L109.578 53.7902C108.59 55.7651 106.186 56.5666 104.211 55.5792C102.235 54.5915 101.435 52.1878 102.422 50.212L104.422 46.212Z" fill="#8DA5F3"/>
<path d="M85.2852 6.13392C90.4011 4.01484 96.0299 3.46014 101.461 4.54017C106.892 5.62059 111.885 8.28452 115.801 12.2003C117.362 13.7624 117.363 16.2986 115.801 17.8605C114.239 19.4217 111.703 19.4217 110.141 17.8605C107.344 15.0636 103.782 13.1557 99.9023 12.3839C96.023 11.6123 92.002 12.0111 88.3477 13.5245C84.6939 15.0381 81.5686 17.5997 79.3711 20.8878C77.1739 24.1766 76 28.0459 76 32.0011C75.9993 34.2096 74.2087 36.0011 72 36.0011C69.7913 36.0011 68.0007 34.2096 68 32.0011C68 26.464 69.6429 21.0506 72.7188 16.4464C75.7953 11.8421 80.1691 8.25321 85.2852 6.13392Z" fill="#8DA5F3"/>
<path d="M118.148 21.9269C120.282 21.3559 122.475 22.6215 123.047 24.755C123.68 27.1179 124 29.5549 124 32.0011C123.999 34.2096 122.209 36.0011 120 36.0011C117.791 36.0011 116.001 34.2096 116 32.0011C116 30.2541 115.772 28.5129 115.32 26.8253C114.749 24.6916 116.015 22.4988 118.148 21.9269Z" fill="#8DA5F3"/>
</g>
<path d="M36 8H44V16H36V24.207C38.5412 21.6124 42.0813 20 46 20C53.732 20 60 26.268 60 34C60 41.0528 54.7844 46.8848 48 47.8555V50L52 54V60H12V54L16 50V47.8555C9.2156 46.8848 4 41.0528 4 34C4 26.268 10.268 20 18 20C21.9187 20 25.4588 21.6124 28 24.207V16H20V8H28V0H36V8Z" fill="#E0E0E0"/>
<g opacity="0.25">
<path d="M235.578 177.789C238.288 179.144 240 181.915 240 184.945V188H208V184.945C208 181.915 209.712 179.144 212.422 177.789L216 176H232L235.578 177.789Z" fill="#8EEF97"/>
<path d="M232 132C238.627 132 244 137.373 244 144V152C246.209 152 248 153.791 248 156C248 158.071 246.427 159.775 244.41 159.98L244 160C244 166.627 238.627 172 232 172H216C209.373 172 204 166.627 204 160L203.59 159.98C201.573 159.775 200 158.071 200 156C200 153.791 201.791 152 204 152V144C204 137.373 209.373 132 216 132H232ZM216 160C216 164.418 219.582 168 224 168C228.418 168 232 164.418 232 160H228C228 162.209 226.209 164 224 164C221.791 164 220 162.209 220 160H216ZM214 148C212.895 148 212 148.895 212 150V154C212 155.105 212.895 156 214 156C215.105 156 216 155.105 216 154V150C216 148.895 215.105 148 214 148ZM234 148C232.895 148 232 148.895 232 150V154C232 155.105 232.895 156 234 156C235.105 156 236 155.105 236 154V150C236 148.895 235.105 148 234 148Z" fill="#8EEF97"/>
</g>
<g opacity="0.25">
<path d="M698 132C699.105 132 700 132.895 700 134V136.879C700 143.02 695.02 148 688.879 148C685.162 147.999 681.691 146.14 679.629 143.047L677.004 139.113C675.708 137.17 673.527 136 671.191 136C668.325 136 666 138.325 666 141.191V144H676V152C680.857 155.649 684 161.457 684 168C684 179.046 675.046 188 664 188C652.954 188 644 179.046 644 168C644 161.457 647.143 155.649 652 152V144H662V141.191C662 136.116 666.116 132 671.191 132C674.865 132 678.294 133.838 680.332 136.895L682.957 140.828C684.277 142.808 686.499 143.999 688.879 144C692.811 144 696 140.811 696 136.879V134C696 132.895 696.895 132 698 132Z" fill="#FC7F7F"/>
</g>
<g opacity="0.25">
<path d="M672 236C675.755 236 679.315 236.269 682.574 236.723C681.849 239.802 680.881 242.547 679.734 244.84C678.422 247.464 676.97 249.325 675.57 250.484C674.199 251.621 672.993 252 672 252C671.007 252 669.801 251.621 668.43 250.484C667.03 249.325 665.578 247.464 664.266 244.84C663.119 242.546 662.147 239.803 661.422 236.723C664.682 236.269 668.244 236 672 236Z" fill="#E0E0E0"/>
<path d="M657.473 237.383C658.263 240.818 659.348 243.951 660.688 246.629C661.415 248.085 662.213 249.391 663.062 250.535C657.32 248.602 652.413 244.861 649.016 239.984C649.558 239.74 650.146 239.499 650.777 239.262C652.719 238.533 654.973 237.896 657.473 237.383Z" fill="#E0E0E0"/>
<path d="M686.523 237.383C689.025 237.896 691.28 238.533 693.223 239.262C693.853 239.498 694.439 239.74 694.98 239.984C691.582 244.861 686.677 248.602 680.934 250.535C681.784 249.39 682.584 248.085 683.312 246.629C684.652 243.951 685.733 240.817 686.523 237.383Z" fill="#E0E0E0"/>
<path d="M646.961 211.465C649.623 212.718 652.937 213.771 656.715 214.543C656.242 217.601 656 220.788 656 224C656 227.21 656.242 230.397 656.715 233.453C652.938 234.225 649.623 235.278 646.961 236.531C645.07 232.76 644 228.506 644 224C644 219.493 645.069 215.237 646.961 211.465Z" fill="#E0E0E0"/>
<path d="M697.035 211.465C698.928 215.237 700 219.492 700 224C700 228.506 698.927 232.76 697.035 236.531C694.373 235.279 691.058 234.224 687.281 233.453C687.754 230.397 688 227.211 688 224C688 220.788 687.754 217.601 687.281 214.543C691.059 213.772 694.373 212.718 697.035 211.465Z" fill="#E0E0E0"/>
<path d="M683.34 215.223C683.774 218.048 684 221.007 684 224C684 226.991 683.773 229.949 683.34 232.773C679.815 232.272 675.993 232 672 232C668.006 232 664.182 232.272 660.656 232.773C660.223 229.949 660 226.991 660 224C660 221.008 660.222 218.048 660.656 215.223C664.182 215.724 668.005 216 672 216C675.993 216 679.815 215.724 683.34 215.223Z" fill="#E0E0E0"/>
<path d="M672 196C672.993 196 674.199 196.379 675.57 197.516C676.97 198.675 678.422 200.536 679.734 203.16C680.881 205.453 681.849 208.195 682.574 211.273C679.315 211.727 675.755 212 672 212C668.244 212 664.682 211.728 661.422 211.273C662.147 208.195 663.119 205.453 664.266 203.16C665.578 200.536 667.03 198.675 668.43 197.516C669.801 196.379 671.007 196 672 196Z" fill="#E0E0E0"/>
<path d="M663.062 197.461C662.212 198.606 661.416 199.914 660.688 201.371C659.349 204.049 658.263 207.18 657.473 210.613C654.973 210.1 652.719 209.466 650.777 208.738C650.145 208.501 649.559 208.257 649.016 208.012C652.414 203.136 657.321 199.394 663.062 197.461Z" fill="#E0E0E0"/>
<path d="M680.934 197.461C686.676 199.393 691.582 203.136 694.98 208.012C694.438 208.256 693.854 208.502 693.223 208.738C691.28 209.467 689.024 210.1 686.523 210.613C685.733 207.18 684.651 204.048 683.312 201.371C682.584 199.914 681.785 198.606 680.934 197.461Z" fill="#E0E0E0"/>
</g>
<defs>
<clipPath id="clip0_101_813">
<rect width="64" height="64" fill="white" transform="translate(0 128)"/>
</clipPath>
</defs>
</svg>
